<mxfile host="app.diagrams.net" modified="2023-05-25T07:48:13.184Z" agent="Mozilla/5.0 (Windows NT 10.0; Win64; x64) AppleWebKit/537.36 (KHTML, like Gecko) Chrome/113.0.0.0 Safari/537.36" etag="SXTv6_5POerzI1oz8q0_" version="21.3.3" type="device">
  <diagram name="Pagina-1" id="ElGlg7DktwxLKoOC_fQc">
    <mxGraphModel dx="1880" dy="840" grid="1" gridSize="10" guides="1" tooltips="1" connect="1" arrows="1" fold="1" page="1" pageScale="1" pageWidth="1920" pageHeight="1200" math="0" shadow="0">
      <root>
        <mxCell id="0" />
        <mxCell id="1" parent="0" />
        <mxCell id="iaDolOjKhi0dW4eZ9rh0-1" value="Animal" style="swimlane;fontStyle=0;childLayout=stackLayout;horizontal=1;startSize=26;horizontalStack=0;resizeParent=1;resizeParentMax=0;resizeLast=0;collapsible=1;marginBottom=0;align=center;fontSize=14;" parent="1" vertex="1">
          <mxGeometry x="360" y="160" width="160" height="160" as="geometry" />
        </mxCell>
        <mxCell id="iaDolOjKhi0dW4eZ9rh0-4" value="&lt;b&gt;&lt;font style=&quot;font-size: 14px;&quot;&gt;&lt;u&gt;id&lt;/u&gt;&lt;/font&gt;&lt;/b&gt;&lt;br&gt;name&lt;br&gt;favFood&lt;br&gt;age&lt;br&gt;weight&lt;br&gt;height&lt;br&gt;dateOfJoin" style="text;strokeColor=none;fillColor=none;spacingLeft=4;spacingRight=4;overflow=hidden;rotatable=0;points=[[0,0.5],[1,0.5]];portConstraint=eastwest;fontSize=12;whiteSpace=wrap;html=1;" parent="iaDolOjKhi0dW4eZ9rh0-1" vertex="1">
          <mxGeometry y="26" width="160" height="134" as="geometry" />
        </mxCell>
        <mxCell id="iaDolOjKhi0dW4eZ9rh0-7" value="AnimalWithTail" style="swimlane;fontStyle=0;childLayout=stackLayout;horizontal=1;startSize=26;horizontalStack=0;resizeParent=1;resizeParentMax=0;resizeLast=0;collapsible=1;marginBottom=0;align=center;fontSize=14;" parent="1" vertex="1">
          <mxGeometry x="240" y="400" width="160" height="80" as="geometry" />
        </mxCell>
        <mxCell id="iaDolOjKhi0dW4eZ9rh0-8" value="tailLength" style="text;strokeColor=none;fillColor=none;spacingLeft=4;spacingRight=4;overflow=hidden;rotatable=0;points=[[0,0.5],[1,0.5]];portConstraint=eastwest;fontSize=12;whiteSpace=wrap;html=1;" parent="iaDolOjKhi0dW4eZ9rh0-7" vertex="1">
          <mxGeometry y="26" width="160" height="54" as="geometry" />
        </mxCell>
        <mxCell id="iaDolOjKhi0dW4eZ9rh0-11" value="AnimalWithWings" style="swimlane;fontStyle=0;childLayout=stackLayout;horizontal=1;startSize=26;horizontalStack=0;resizeParent=1;resizeParentMax=0;resizeLast=0;collapsible=1;marginBottom=0;align=center;fontSize=14;" parent="1" vertex="1">
          <mxGeometry x="480" y="400" width="160" height="80" as="geometry" />
        </mxCell>
        <mxCell id="iaDolOjKhi0dW4eZ9rh0-12" value="wingSpan" style="text;strokeColor=none;fillColor=none;spacingLeft=4;spacingRight=4;overflow=hidden;rotatable=0;points=[[0,0.5],[1,0.5]];portConstraint=eastwest;fontSize=12;whiteSpace=wrap;html=1;" parent="iaDolOjKhi0dW4eZ9rh0-11" vertex="1">
          <mxGeometry y="26" width="160" height="54" as="geometry" />
        </mxCell>
        <mxCell id="iaDolOjKhi0dW4eZ9rh0-19" value="Lion" style="whiteSpace=wrap;html=1;align=center;" parent="1" vertex="1">
          <mxGeometry x="210" y="560" width="100" height="40" as="geometry" />
        </mxCell>
        <mxCell id="iaDolOjKhi0dW4eZ9rh0-21" value="Tiger" style="whiteSpace=wrap;html=1;align=center;" parent="1" vertex="1">
          <mxGeometry x="330" y="560" width="100" height="40" as="geometry" />
        </mxCell>
        <mxCell id="iaDolOjKhi0dW4eZ9rh0-23" value="Eagle" style="whiteSpace=wrap;html=1;align=center;" parent="1" vertex="1">
          <mxGeometry x="510" y="560" width="100" height="40" as="geometry" />
        </mxCell>
        <mxCell id="iaDolOjKhi0dW4eZ9rh0-25" value="" style="endArrow=classic;html=1;rounded=0;entryX=0.5;entryY=0;entryDx=0;entryDy=0;" parent="1" target="iaDolOjKhi0dW4eZ9rh0-7" edge="1">
          <mxGeometry width="50" height="50" relative="1" as="geometry">
            <mxPoint x="420" y="320" as="sourcePoint" />
            <mxPoint x="460" y="290" as="targetPoint" />
          </mxGeometry>
        </mxCell>
        <mxCell id="iaDolOjKhi0dW4eZ9rh0-26" value="" style="endArrow=classic;html=1;rounded=0;entryX=0.5;entryY=0;entryDx=0;entryDy=0;" parent="1" target="iaDolOjKhi0dW4eZ9rh0-11" edge="1">
          <mxGeometry width="50" height="50" relative="1" as="geometry">
            <mxPoint x="460" y="320" as="sourcePoint" />
            <mxPoint x="550" y="400" as="targetPoint" />
          </mxGeometry>
        </mxCell>
        <mxCell id="iaDolOjKhi0dW4eZ9rh0-28" value="" style="endArrow=classic;html=1;rounded=0;entryX=0.5;entryY=0;entryDx=0;entryDy=0;" parent="1" source="iaDolOjKhi0dW4eZ9rh0-8" target="iaDolOjKhi0dW4eZ9rh0-19" edge="1">
          <mxGeometry width="50" height="50" relative="1" as="geometry">
            <mxPoint x="333.28" y="490.0000000000001" as="sourcePoint" />
            <mxPoint x="380" y="484.65999999999997" as="targetPoint" />
          </mxGeometry>
        </mxCell>
        <mxCell id="iaDolOjKhi0dW4eZ9rh0-30" value="" style="endArrow=classic;html=1;rounded=0;entryX=0.5;entryY=0;entryDx=0;entryDy=0;" parent="1" source="iaDolOjKhi0dW4eZ9rh0-8" target="iaDolOjKhi0dW4eZ9rh0-21" edge="1">
          <mxGeometry width="50" height="50" relative="1" as="geometry">
            <mxPoint x="348.6399999999999" y="490.0000000000001" as="sourcePoint" />
            <mxPoint x="400" y="494.65999999999997" as="targetPoint" />
          </mxGeometry>
        </mxCell>
        <mxCell id="iaDolOjKhi0dW4eZ9rh0-31" value="" style="endArrow=classic;html=1;rounded=0;entryX=0.5;entryY=0;entryDx=0;entryDy=0;" parent="1" source="iaDolOjKhi0dW4eZ9rh0-12" target="iaDolOjKhi0dW4eZ9rh0-23" edge="1">
          <mxGeometry width="50" height="50" relative="1" as="geometry">
            <mxPoint x="534" y="490.65999999999997" as="sourcePoint" />
            <mxPoint x="560" y="494.65999999999997" as="targetPoint" />
          </mxGeometry>
        </mxCell>
        <mxCell id="iaDolOjKhi0dW4eZ9rh0-36" value="Room" style="swimlane;fontStyle=0;childLayout=stackLayout;horizontal=1;startSize=26;horizontalStack=0;resizeParent=1;resizeParentMax=0;resizeLast=0;collapsible=1;marginBottom=0;align=center;fontSize=14;" parent="1" vertex="1">
          <mxGeometry x="880" y="439.91999999999996" width="160" height="80" as="geometry" />
        </mxCell>
        <mxCell id="iaDolOjKhi0dW4eZ9rh0-37" value="&lt;b style=&quot;font-size: 14px; text-decoration-line: underline;&quot;&gt;id&lt;/b&gt;&lt;br&gt;&lt;font style=&quot;font-size: 12px;&quot;&gt;name&lt;/font&gt;" style="text;strokeColor=none;fillColor=none;spacingLeft=4;spacingRight=4;overflow=hidden;rotatable=0;points=[[0,0.5],[1,0.5]];portConstraint=eastwest;fontSize=12;whiteSpace=wrap;html=1;" parent="iaDolOjKhi0dW4eZ9rh0-36" vertex="1">
          <mxGeometry y="26" width="160" height="54" as="geometry" />
        </mxCell>
        <mxCell id="iaDolOjKhi0dW4eZ9rh0-72" style="edgeStyle=orthogonalEdgeStyle;rounded=0;orthogonalLoop=1;jettySize=auto;html=1;entryX=1.004;entryY=0.394;entryDx=0;entryDy=0;entryPerimeter=0;endArrow=none;endFill=0;" parent="1" source="iaDolOjKhi0dW4eZ9rh0-40" target="iaDolOjKhi0dW4eZ9rh0-4" edge="1">
          <mxGeometry relative="1" as="geometry">
            <Array as="points">
              <mxPoint x="521" y="240" />
            </Array>
          </mxGeometry>
        </mxCell>
        <mxCell id="iaDolOjKhi0dW4eZ9rh0-73" style="edgeStyle=orthogonalEdgeStyle;rounded=0;orthogonalLoop=1;jettySize=auto;html=1;entryX=0;entryY=0.25;entryDx=0;entryDy=0;endArrow=none;endFill=0;" parent="1" source="iaDolOjKhi0dW4eZ9rh0-40" target="iaDolOjKhi0dW4eZ9rh0-36" edge="1">
          <mxGeometry relative="1" as="geometry" />
        </mxCell>
        <mxCell id="iaDolOjKhi0dW4eZ9rh0-40" value="Stays" style="shape=rhombus;perimeter=rhombusPerimeter;whiteSpace=wrap;html=1;align=center;" parent="1" vertex="1">
          <mxGeometry x="620" y="210" width="116" height="60" as="geometry" />
        </mxCell>
        <mxCell id="iaDolOjKhi0dW4eZ9rh0-65" value="" style="edgeStyle=orthogonalEdgeStyle;rounded=0;orthogonalLoop=1;jettySize=auto;html=1;endArrow=none;endFill=0;entryX=0;entryY=0.5;entryDx=0;entryDy=0;" parent="1" source="iaDolOjKhi0dW4eZ9rh0-52" target="hz1OkdymVxdqyVW1e_76-5" edge="1">
          <mxGeometry relative="1" as="geometry">
            <mxPoint x="1120" y="749" as="targetPoint" />
          </mxGeometry>
        </mxCell>
        <mxCell id="iaDolOjKhi0dW4eZ9rh0-67" value="" style="edgeStyle=orthogonalEdgeStyle;rounded=0;orthogonalLoop=1;jettySize=auto;html=1;endArrow=none;endFill=0;" parent="1" source="iaDolOjKhi0dW4eZ9rh0-52" target="iaDolOjKhi0dW4eZ9rh0-37" edge="1">
          <mxGeometry relative="1" as="geometry" />
        </mxCell>
        <mxCell id="iaDolOjKhi0dW4eZ9rh0-52" value="Has" style="shape=rhombus;perimeter=rhombusPerimeter;whiteSpace=wrap;html=1;align=center;" parent="1" vertex="1">
          <mxGeometry x="1129.97" y="530" width="120" height="60" as="geometry" />
        </mxCell>
        <mxCell id="iaDolOjKhi0dW4eZ9rh0-53" value="Player" style="swimlane;fontStyle=0;childLayout=stackLayout;horizontal=1;startSize=26;horizontalStack=0;resizeParent=1;resizeParentMax=0;resizeLast=0;collapsible=1;marginBottom=0;align=center;fontSize=14;" parent="1" vertex="1">
          <mxGeometry x="880" y="160" width="160" height="120" as="geometry" />
        </mxCell>
        <mxCell id="iaDolOjKhi0dW4eZ9rh0-54" value="&lt;b style=&quot;font-size: 14px;&quot;&gt;&lt;u&gt;id&lt;br&gt;&lt;/u&gt;&lt;/b&gt;name&lt;br&gt;lifePoints" style="text;strokeColor=none;fillColor=none;spacingLeft=4;spacingRight=4;overflow=hidden;rotatable=0;points=[[0,0.5],[1,0.5]];portConstraint=eastwest;fontSize=12;whiteSpace=wrap;html=1;" parent="iaDolOjKhi0dW4eZ9rh0-53" vertex="1">
          <mxGeometry y="26" width="160" height="94" as="geometry" />
        </mxCell>
        <mxCell id="iaDolOjKhi0dW4eZ9rh0-81" style="edgeStyle=orthogonalEdgeStyle;rounded=0;orthogonalLoop=1;jettySize=auto;html=1;endArrow=oval;endFill=0;entryX=1;entryY=0.5;entryDx=0;entryDy=0;" parent="1" source="iaDolOjKhi0dW4eZ9rh0-57" target="iaDolOjKhi0dW4eZ9rh0-59" edge="1">
          <mxGeometry relative="1" as="geometry">
            <mxPoint x="760" y="619.9999999999999" as="targetPoint" />
          </mxGeometry>
        </mxCell>
        <mxCell id="iaDolOjKhi0dW4eZ9rh0-82" style="edgeStyle=orthogonalEdgeStyle;rounded=0;orthogonalLoop=1;jettySize=auto;html=1;entryX=0;entryY=0.5;entryDx=0;entryDy=0;endArrow=none;endFill=0;" parent="1" source="iaDolOjKhi0dW4eZ9rh0-57" target="iaDolOjKhi0dW4eZ9rh0-37" edge="1">
          <mxGeometry relative="1" as="geometry" />
        </mxCell>
        <mxCell id="iaDolOjKhi0dW4eZ9rh0-83" style="edgeStyle=orthogonalEdgeStyle;rounded=0;orthogonalLoop=1;jettySize=auto;html=1;endArrow=none;endFill=0;" parent="1" source="iaDolOjKhi0dW4eZ9rh0-57" edge="1">
          <mxGeometry relative="1" as="geometry">
            <mxPoint x="960" y="519.9999999999999" as="targetPoint" />
          </mxGeometry>
        </mxCell>
        <mxCell id="iaDolOjKhi0dW4eZ9rh0-57" value="Connection_Room" style="shape=rhombus;perimeter=rhombusPerimeter;whiteSpace=wrap;html=1;align=center;" parent="1" vertex="1">
          <mxGeometry x="780" y="560" width="120" height="60" as="geometry" />
        </mxCell>
        <mxCell id="iaDolOjKhi0dW4eZ9rh0-59" value="direction" style="text;html=1;strokeColor=none;fillColor=none;align=center;verticalAlign=middle;whiteSpace=wrap;rounded=0;" parent="1" vertex="1">
          <mxGeometry x="688" y="580" width="60" height="20" as="geometry" />
        </mxCell>
        <mxCell id="iaDolOjKhi0dW4eZ9rh0-84" value="" style="edgeStyle=orthogonalEdgeStyle;rounded=0;orthogonalLoop=1;jettySize=auto;html=1;endArrow=none;endFill=0;" parent="1" source="iaDolOjKhi0dW4eZ9rh0-74" target="iaDolOjKhi0dW4eZ9rh0-54" edge="1">
          <mxGeometry relative="1" as="geometry">
            <mxPoint x="960" y="290" as="targetPoint" />
          </mxGeometry>
        </mxCell>
        <mxCell id="iaDolOjKhi0dW4eZ9rh0-85" value="" style="edgeStyle=orthogonalEdgeStyle;rounded=0;orthogonalLoop=1;jettySize=auto;html=1;endArrow=none;endFill=0;" parent="1" source="iaDolOjKhi0dW4eZ9rh0-74" target="iaDolOjKhi0dW4eZ9rh0-36" edge="1">
          <mxGeometry relative="1" as="geometry" />
        </mxCell>
        <mxCell id="iaDolOjKhi0dW4eZ9rh0-74" value="Stays" style="shape=rhombus;perimeter=rhombusPerimeter;whiteSpace=wrap;html=1;align=center;" parent="1" vertex="1">
          <mxGeometry x="900" y="330" width="120" height="60" as="geometry" />
        </mxCell>
        <mxCell id="iaDolOjKhi0dW4eZ9rh0-86" value="Bag" style="swimlane;fontStyle=0;childLayout=stackLayout;horizontal=1;startSize=26;horizontalStack=0;resizeParent=1;resizeParentMax=0;resizeLast=0;collapsible=1;marginBottom=0;align=center;fontSize=14;" parent="1" vertex="1">
          <mxGeometry x="1360" y="160" width="160" height="120" as="geometry" />
        </mxCell>
        <mxCell id="iaDolOjKhi0dW4eZ9rh0-87" value="&lt;b style=&quot;font-size: 14px;&quot;&gt;&lt;u&gt;id&lt;br&gt;&lt;/u&gt;&lt;/b&gt;maxSlots" style="text;strokeColor=none;fillColor=none;spacingLeft=4;spacingRight=4;overflow=hidden;rotatable=0;points=[[0,0.5],[1,0.5]];portConstraint=eastwest;fontSize=12;whiteSpace=wrap;html=1;" parent="iaDolOjKhi0dW4eZ9rh0-86" vertex="1">
          <mxGeometry y="26" width="160" height="94" as="geometry" />
        </mxCell>
        <mxCell id="iaDolOjKhi0dW4eZ9rh0-92" style="edgeStyle=orthogonalEdgeStyle;rounded=0;orthogonalLoop=1;jettySize=auto;html=1;entryX=1.002;entryY=0.154;entryDx=0;entryDy=0;entryPerimeter=0;endArrow=none;endFill=0;" parent="1" source="iaDolOjKhi0dW4eZ9rh0-91" target="iaDolOjKhi0dW4eZ9rh0-54" edge="1">
          <mxGeometry relative="1" as="geometry" />
        </mxCell>
        <mxCell id="iaDolOjKhi0dW4eZ9rh0-93" style="edgeStyle=orthogonalEdgeStyle;rounded=0;orthogonalLoop=1;jettySize=auto;html=1;entryX=-0.01;entryY=0.149;entryDx=0;entryDy=0;entryPerimeter=0;endArrow=none;endFill=0;" parent="1" source="iaDolOjKhi0dW4eZ9rh0-91" target="iaDolOjKhi0dW4eZ9rh0-87" edge="1">
          <mxGeometry relative="1" as="geometry">
            <Array as="points">
              <mxPoint x="1358" y="200" />
            </Array>
          </mxGeometry>
        </mxCell>
        <mxCell id="iaDolOjKhi0dW4eZ9rh0-91" value="Has" style="shape=rhombus;perimeter=rhombusPerimeter;whiteSpace=wrap;html=1;align=center;" parent="1" vertex="1">
          <mxGeometry x="1149.97" y="170" width="120" height="60" as="geometry" />
        </mxCell>
        <mxCell id="iaDolOjKhi0dW4eZ9rh0-96" value="" style="edgeStyle=orthogonalEdgeStyle;rounded=0;orthogonalLoop=1;jettySize=auto;html=1;endArrow=none;endFill=0;entryX=1;entryY=0.5;entryDx=0;entryDy=0;" parent="1" source="iaDolOjKhi0dW4eZ9rh0-97" target="hz1OkdymVxdqyVW1e_76-7" edge="1">
          <mxGeometry relative="1" as="geometry">
            <mxPoint x="1640" y="513" as="targetPoint" />
          </mxGeometry>
        </mxCell>
        <mxCell id="iaDolOjKhi0dW4eZ9rh0-98" style="edgeStyle=orthogonalEdgeStyle;rounded=0;orthogonalLoop=1;jettySize=auto;html=1;entryX=1.023;entryY=0.125;entryDx=0;entryDy=0;entryPerimeter=0;endArrow=none;endFill=0;" parent="1" source="iaDolOjKhi0dW4eZ9rh0-97" target="iaDolOjKhi0dW4eZ9rh0-87" edge="1">
          <mxGeometry relative="1" as="geometry" />
        </mxCell>
        <mxCell id="iaDolOjKhi0dW4eZ9rh0-97" value="Has" style="shape=rhombus;perimeter=rhombusPerimeter;whiteSpace=wrap;html=1;align=center;" parent="1" vertex="1">
          <mxGeometry x="1510" y="320" width="120" height="60" as="geometry" />
        </mxCell>
        <mxCell id="iaDolOjKhi0dW4eZ9rh0-99" value="Direction" style="swimlane;fontStyle=0;childLayout=stackLayout;horizontal=1;startSize=26;horizontalStack=0;resizeParent=1;resizeParentMax=0;resizeLast=0;collapsible=1;marginBottom=0;align=center;fontSize=14;" parent="1" vertex="1">
          <mxGeometry x="760" y="676" width="160" height="80" as="geometry" />
        </mxCell>
        <mxCell id="iaDolOjKhi0dW4eZ9rh0-100" value="&lt;b style=&quot;font-size: 14px;&quot;&gt;&lt;u&gt;id&lt;br&gt;&lt;/u&gt;&lt;/b&gt;name" style="text;strokeColor=none;fillColor=none;spacingLeft=4;spacingRight=4;overflow=hidden;rotatable=0;points=[[0,0.5],[1,0.5]];portConstraint=eastwest;fontSize=12;whiteSpace=wrap;html=1;" parent="iaDolOjKhi0dW4eZ9rh0-99" vertex="1">
          <mxGeometry y="26" width="160" height="54" as="geometry" />
        </mxCell>
        <mxCell id="iaDolOjKhi0dW4eZ9rh0-103" value="(0,N)" style="text;html=1;strokeColor=none;fillColor=none;align=center;verticalAlign=middle;whiteSpace=wrap;rounded=0;" parent="1" vertex="1">
          <mxGeometry x="570" y="210" width="60" height="30" as="geometry" />
        </mxCell>
        <mxCell id="iaDolOjKhi0dW4eZ9rh0-104" value="(1,1)" style="text;html=1;strokeColor=none;fillColor=none;align=center;verticalAlign=middle;whiteSpace=wrap;rounded=0;" parent="1" vertex="1">
          <mxGeometry x="720" y="210" width="60" height="30" as="geometry" />
        </mxCell>
        <mxCell id="iaDolOjKhi0dW4eZ9rh0-105" value="(0,1)" style="text;html=1;strokeColor=none;fillColor=none;align=center;verticalAlign=middle;whiteSpace=wrap;rounded=0;" parent="1" vertex="1">
          <mxGeometry x="910" y="300" width="60" height="30" as="geometry" />
        </mxCell>
        <mxCell id="iaDolOjKhi0dW4eZ9rh0-106" value="(1,1)" style="text;html=1;strokeColor=none;fillColor=none;align=center;verticalAlign=middle;whiteSpace=wrap;rounded=0;" parent="1" vertex="1">
          <mxGeometry x="910" y="390" width="60" height="30" as="geometry" />
        </mxCell>
        <mxCell id="iaDolOjKhi0dW4eZ9rh0-108" value="(1,N)" style="text;html=1;strokeColor=none;fillColor=none;align=center;verticalAlign=middle;whiteSpace=wrap;rounded=0;" parent="1" vertex="1">
          <mxGeometry x="890" y="590" width="60" height="30" as="geometry" />
        </mxCell>
        <mxCell id="iaDolOjKhi0dW4eZ9rh0-109" value="(1,N)" style="text;html=1;strokeColor=none;fillColor=none;align=center;verticalAlign=middle;whiteSpace=wrap;rounded=0;" parent="1" vertex="1">
          <mxGeometry x="790" y="530" width="60" height="30" as="geometry" />
        </mxCell>
        <mxCell id="iaDolOjKhi0dW4eZ9rh0-110" value="(1,1)" style="text;html=1;strokeColor=none;fillColor=none;align=center;verticalAlign=middle;whiteSpace=wrap;rounded=0;" parent="1" vertex="1">
          <mxGeometry x="1179.97" y="489.92" width="60" height="30" as="geometry" />
        </mxCell>
        <mxCell id="iaDolOjKhi0dW4eZ9rh0-111" value="(0,N)" style="text;html=1;strokeColor=none;fillColor=none;align=center;verticalAlign=middle;whiteSpace=wrap;rounded=0;" parent="1" vertex="1">
          <mxGeometry x="1179.97" y="600" width="60" height="30" as="geometry" />
        </mxCell>
        <mxCell id="iaDolOjKhi0dW4eZ9rh0-112" value="(1,1)" style="text;html=1;strokeColor=none;fillColor=none;align=center;verticalAlign=middle;whiteSpace=wrap;rounded=0;" parent="1" vertex="1">
          <mxGeometry x="1100" y="170" width="60" height="30" as="geometry" />
        </mxCell>
        <mxCell id="iaDolOjKhi0dW4eZ9rh0-113" value="(1,1)" style="text;html=1;strokeColor=none;fillColor=none;align=center;verticalAlign=middle;whiteSpace=wrap;rounded=0;" parent="1" vertex="1">
          <mxGeometry x="1260" y="170" width="60" height="30" as="geometry" />
        </mxCell>
        <mxCell id="iaDolOjKhi0dW4eZ9rh0-114" value="(1,1)" style="text;html=1;strokeColor=none;fillColor=none;align=center;verticalAlign=middle;whiteSpace=wrap;rounded=0;" parent="1" vertex="1">
          <mxGeometry x="1560" y="290" width="60" height="30" as="geometry" />
        </mxCell>
        <mxCell id="iaDolOjKhi0dW4eZ9rh0-115" value="(0,N)" style="text;html=1;strokeColor=none;fillColor=none;align=center;verticalAlign=middle;whiteSpace=wrap;rounded=0;" parent="1" vertex="1">
          <mxGeometry x="1560" y="380" width="60" height="30" as="geometry" />
        </mxCell>
        <mxCell id="iaDolOjKhi0dW4eZ9rh0-116" value="&lt;span data-buffer=&quot;&lt;!--(figma)ZmlnLWtpd2kZAAAAWjkAALWdaZxkS1XgI25m1tLV69s39n317Tx2crlVmd25vbyZVd1PfElW5a2qpLMyi7xZ3a8ZF0REREREREVEREREREREVERERERERERURAaRcRyGcZwZh3EcZ/4nIu7Nm9X9mPky/HgdJ06cOLGdc+LEichbX9e1MIp6O2H70n6o1FWnG5V6N2jnW23F/+qNkt8tlvP1NT8gqzuB30rlPUPt10vAmaCyVs9XgbJB+1zVB8gZoBv4wmvB0BrO3eBMpdlt+dVGXmou1hvtyuq5blBudKqlbqe51sqXpP6SA7ulRl3yy3G+5a+2/KAM6khQ9Ot+F3Sz3L2347fOgVxJI1t+syrIo6XK6irpsWK14tfb3UKL1ov5QPp2PNW3041Oi3H40rMTQbvl52u2hPxJl7cjPpV/YBAxCWeBlTSh81tbTCYoqErdRt00rExmo1Vpyxh0fdwPm7u9KISsSFHbtARRrbFuQL0xGPUHo53WwVBo6o36fX6rQYFqlEy5cLCr9XAKfVCq1Ch2aowKUBfz9fV8AOSttRqdJkBmtZWvCV220GhU/Xy922j6rXy70qiDzK37xXajBbQg4yRdrFYM2yW/Wq00AwGXWxCx7GZdj7T8tU413+o2G9Vza4bJCk3VS36J6Z7RHW37Z6VLx4JqpSiI48G5WqEhMnKiUqexusEyq5XiGZmqU0E53/S7G5V2uevqXlVs1OvwNB28uijyWKg2imfIXbNRKa0Z2boWXjUZ6XU1v1TJA1xfrqyVq/wnxTcEMLCDvdGBXSa7Vc1Lozdt5INypdumZXI3r+dblXzB9P+WtgMeYoBukfkg99CYxEn2w4Ld3n64MZjutsMHpnZlbgru7eRbPqWKSm4SNX2rNYzseG1YyDQh7mQzSbbU2JB+Zq80n7lmvpWvVtEbRLvWbbnhLcyjq/6qYBf9+lq3lKfnedP4kuTRkI5kliWzWjFcjxi4US35MsUrbbTGv69RkV4ebbb8kr+KNJS6zVaj6AciV8eYLr8q5cdjuesGFdfHEwmq1qm2K02DPFnL1zv5ardSb3akb6fK/tm8FZyrimV/vWXAq5tUc+hrGgzbgrK40rPrmtWONH99vtVqbMTDvMHm4rm4sTAMR/0aGiL88kHQbZeZyjWxFareaNWMhdKlfOuML8w910sRhIyIPVJdwACQzRYb1UaSyxlhMnUWAvTWQEZRqFFqIIjkl2yVOLs8E7IjQWO13TU8yK2U861SkjOWyW/5VhuO+WeLDBQZJXO8bJbrRJBvdxKFPWlaAThV7dQq9UZQaUsTVzV7g5ETv6WgUTUrqBCJUoV5pTXpKhidoCQ184GlABQUoiaaDS6T4CByUput1PJmZDms1ekKwMJ6peSLcVqs7LGJBFu9YWhnn12g5beLZuJXKzJOjcCZ1tpW8DL+9na45XqcraDmLfaAPBpAoSq1Gs1ZVq82MDqsZL2E/nekg14hXzwzj8qIAhaNbV1oIBIVDDlo1Wli70h1tbFhALrQtn0IkIhqt5hvimhlZzk0olU09jgnTEvh1njSmw7GI+rEVpeWWV/mFVgz3MoZfyZtXjXsiRlvTwZ75OI68O6Wfbfyun6wtxlOOqPBNIJvKy9DVc3KWb8aAGh6zU4mlF5xPIqmk9kKL7Ly4JWUmyHpWl42Io9+uGnPBEX2MYDsKhxLXVsj5zKGeiGYTsbnw/xwsDOiQsJMYZ5ZWADd6LQd6FniYm8fiYzHw3CNaOjE4HlWI2VeZBAZm/Xv7VSqbHZYKpBZJ1Nig+xWm2P6ED4sYIJaSNvwxZmV7t5GfimVv538cip/B/kjqfyd5FdS+bvIH03l7yZ/rFhpFdOtH7ejPT0eyMzU2L1bYFXBX/dlBDoeuFcYj4dhb9TYD2MByXbqVlOZRqrJlgOsg04B42pg76xRYCOvZvLL48ngxePRtDekujNtqbVFls0seKc7bJarFdPDWe31cDIdoHqCazQpSlUtNNrtRg3Iq40PorB4MInGE+YHu57H9lGgiq1GgKZVWsDaP+eL6iF65DxcPdNUM89QsIVFRJx8FlNNkiMpVqpACzWxqFJlkSXGSwRaStbPZJfXUfbxpDaYTKQDiRaZVSfVBsACYRnZktoiwl6pF+1ae+IV2UZBqZmAa2NzrD5km/U1UOp005dUB+uSeM2S+HwZ/4H98WR6WIcy+BaYdHYvpygqRuBZmPZ1jEhU1qv2Lo0PpmuTQd8yyVq1Ss34rIOe1bLMrE6zN52GkxFFUFWaRkOw0cZWa7OeB9NxK4wGL4Z1MkWmO2Zmkn7oBPKkWntyMNpy4ueVKoG4J8JT4aqyNQPoYHppGAahGztL1woazj62cWpJdBHpsrKCf42vUC/KxpJp+7Vmo5U3vnU2ZsNkTsNkJi/bbwB1vFtgOHpb5+0yJmMqY6DvY3ZNDzQbJU6ggS21kWuau2x27ZR6BYRMTAxwxlQojg/o0MTVW3iweky7W5xMvtOWnSubYpUzrE4fRNPB9iWKHpRLM1/0u5gC6+LbHgR20Yx9BYlLH1Tu87vtBkbFzMccAhljTSu1Jr4xOSmBxg6+OY4GspZsH6BcP1W+wCx37CnCkG1MxBSztXC6yDdBK5fa4vSMuNWCOuZmh1Dw2xvWl9GQjNBQmrVruhSvFJrvy5GoK6dB8rrTMutUYP8lzRSrDeNhZnGHu7FvTD7XaeJ/+l3jk3dbnXq7Yk4hCyhVqSLOjFnvxQpdm/RSLR/HP0fbDXeVX6X1rlRlJyKvaw1OobiSwJ6FbUGGWmXxuICztgDfQchyNmc87QWo8GqNI8vB04xwqdTKr5EuU3bGPxdXO0J2vWFPLivAdhxls5ZHkzwKRv5Ye9Ib2UWzY7iJHRTHvd3F5LOXymghU6gmi7juA+pVjrKkHqcjTjWrrUbiu2dSqNj0Z1M4a+RzKUxi5ReanaBscY7Z4gwT81qaoSyr5Rki4XREDqQW5zitzDAxp6MzlOV0bIZIOB23HWWZIIqZnZhDxvxOzmEty1NzuITrVaYlh3VMr07jYp7XpJGW5bVpVMLxOuxVpdiVMnLX4wwSD8jXMWNG6W7A72/gHs4wN/q9CB21K36cEEKxU6gUKVDCOs5ofPRU1hNbY11saogSJUVZoZvD5GzdOdyCNdNJfjFotqyNX1rDULGHJohlR5ogjljIqADaauV/ZR7Z3hADcfQQssyZB/SxYGsyHg5Lg4m1FXTaadE3sOjMsLG4ti6GZir6HvYxU9OQcv9sk83NWs0iHMRLMjm91mFb0V5EWIXGgBeVHo5xdQzoFcdDfAmdnahlpXf4x9vkn0yPf7LW3aDyA+T0Jf7xWqCgniEu8k9ml3+yhlMwHe9TYUtg9QKl950dhsCr9aaTwQNKL+zdeit5vXfrbSTe3q23k2T2bhNkdu82Qeb2bhPkQrM3weZWRv2Qet7OwaCv7k8xXVGe9f8pvNAbHoTU0QfmLHCL8laZpXpvL1Q6s93bGwwvQa8j2XwBPJhMo63JYH9KLiO0673JoEeVg71wMthaHewcTJhatlt35lWIHesJoDnrm8gcsGlmvmqw39tCqOfqcvjHAxAjZvKaqII7Jl6BwaosrgwwzQFTyXHewDhIiLNZ33TtYm8/QphnVdA/c17UJN044zV9zm7S9QyIbpITn5tonoA5UAx2DXAhxb8Zz3u6W/jk/ItrjjsEYPoTmElmcRKqCjJtVE3j5RsDvxr2pmaC/1Y3OdJRpIq3Nw2J64VXbAaCz0hvSE0HSXMumrdAyER808VGq1QnXcqvtqR8uVQ3xuhIvVOTLq3gQUtE6yg7ogzpWMmmx8W1Jj3BCVTSk/m88eZPFW16FccZSa8ObP6a1roJZFwrikl6XbBhIqjXF4MNSW9gcQR/Y7FoQmk3BdZNurlcMTHSW5yH8pBGqy79e6hMCunD2N9kKR9eaptD6yNWq3kZxyNray3ZwB8VIGukj+Z4IO0/ZhVvlvSxZZs+rmzbfXzb5p9wr02f2LTpk+TIQ/rk6mpB8k9pNE361FbbpN/UtPVvbZ6pyzzdVsV8kN5OKv28o9WuSv5OUsnflS+01knvzhfWJf80Uun3PeuWz9PX6RDpMwrVDVmfZ5IK3bNIhe7Z+TNlGcdziqfNUe65xVWjCM8rNk0+X+y0hK7AVi/5IsZN0tKq5e8TTpP+rJLeTrpGegdpmWalvQqp8D9dtuOhtTXpT7XcOC1yg0tqPJB6BUeCtHG6+bR7SJunm/cIn3tPN59+K2nrdPPWO0mD6uma1GsTNRX6DruarMu6uC+kG6TSj7O1MzXBn6tXjeN1X71zpk36zWwA0q/nkwak37LOhJPe3wzagu+SCv4FrTMtyfdazbKkm61OQdZ9K8DFJe23bT/Cdt0cNrZZJlm/nXViW6S767Z8sG7H/cL1M0Zezq+32i3SIentpHtBgOVVakQq+THpHaT7pHeSvoj0LtIJ6d2kEenTSKekMk8HpE8nvRAE2GylLpIKvwdIhd8lUuH3YlLh929Ihd+3kgq/byMVft9OKvy+g1T4vUQHwe3C8Dt1cd308KUCCMvvEkB4vkwAYfrdAgjXlwsgbL9HAOH7CgGE8fcKIJxfCWC6+n0CCOdXCSCcv18A4fxqAYTzDwggnF8jgHD+QQGE82sFEM4/JIBwfh2A6fMPCyCcXy+AcP4RAYTzjwognH9MAOH8BgGE848LIJzfKIBw/gkBhPObAO4Qzj8pgHB+swDC+acEEM5vEUA4/7QAwvmtAgjnnxFAOL9NAOH8swII57cD3Cmcf04A4fwOAYTzzwsgnN8pgHD+BQGE87sEEM6/KIBwfrcAwvmXBBDO7wG4Szj/sgDC+b0CCOdfEUA4v08A4fyrAgjn9wsgnH9NAOH86wII598QQDh/AOBu4fybAgjnDwognH9LAOH8IQGE828LIJw/LIBw/h0BhPNHBBDOvyuAcP4owNOE8+8JIJw/JoBw/n0BhPPHBRDOfyCAcP6EAML5DwUQzp8UQDj/kQDC+VMA9wjnPxZAOH9aAOH8JwII588IIJz/VADh/FkBhPOfCSCcPyeAcP5zAYTzXwAYE/WXAgjnzwsgnP9KAOH8BQGE818LIJy/KIBw/rcCCOcvCSCc/0YA4fxlfTjQg2s1ZbtWdyodu1ie+JS13v6+ODna256M98Qtm4751ysMx5tK681L0zBSGW0jTMrLcGG3K/mReGT4X/3etGdoF1VmfdAPx8rzYprojs5kKESrgyEn26J4k/n+CwkqKL00lU7h50W7vf74YgTo7Q52djmj7+L34Un2w2lvMATKhowlEicDj/ICZ/iQ0BHwwjTcM7FGW7R4YbDJ2XNL4CVzBWCbdde6yjvy/7fJLTymSY+xLavlzYnwHNEyuSOmM8q7zizASaW3ZCLUC5Q3Fg9zKg545sIgGmzibWmVJXE3N8dVLsITj9S2XoD3KNoeT/bUrlocmNV4mVZLBmrv4j6PpOuglnsjkBwqKlIkmJMWg8uHR8qyLapT5NOXFFepIxazOz4Y9ovSv1pvBIL+XDcZczqhMt1ciaQKwNFtM7eG0i3pK7Q6ti8jXTVFWGt1PNwbv3BQpIUm0WPmeFGfuGCE5OVaXUWkd2cw4gQjLW8M+lMGpq6ew5ZDmUfQ12xJSziw6rMZda04pzXWqoTwKS93PrykRkpvg60ORnElVlcwpcFOSO8ynB7IWZf2xSormQ1LmOMqgBzMB3acXqbHhXa7t0PDWsC6zBpyHGuOCTjbxk9t7fbEzQ8nERQ6yZmGKiUZshcJ3LgQToh7hu0e66te4enM0ARDTbBsk1XntmZI7yO2Hp3bGV7a343Yc/RCP7lxidhx9OImx77zLzoYi2K+UeuTls06HYCEHi9tM5hkdl6t9fJ2bzjcJA62SkGkRvrILoI4obHzhfEDcHmd1ivkgL7k6aPTJILKqXTiTm05dczhw34yv8eH4x2JthuS9rgYj72xvR2FUyyLWtYn9gZxzC2pd6qcal952U3ic/1I9Tn0WXvhToiZ3ZgOBzhHfNJNkfKW0E57hsFIXTSiw3JL2TmAjABJa1nJ5aMtekBuEWUeT8Jq6k4K3d0eTKJp0n8mMYcKpvMLa7IgylvYGu/t9ehtwdq82SF2U9l1pquYwm2GbFaW9i9n3utfcFZjoZSsLoZzwrGcecByJpzEELvlRi4vuPuNAorAdBl0rTdhHt0Mpvtgz/1GCqSmZOrh9OIYctd5ZmKvN6SbfdPXeAiXi6rsFETsmQAtaxOp+7UOLu1tjoeOfWQytMsGYuGYSSQMPE7zYrsC+h6uMg/YP9YpZouomE3I88y6631w+EmcPDEda+FILC4z5NoapznrgyhcZYHXZJdjHJdG5syu2ZkG29uN0fBSCyOE4hrqTIlz+QUxjXsHUxmdMYiWrzfPl4xTKC8fIc6tcBsaMTWoeVyIrKIkU1ofH+xXmP5YdHUvrvMOLTTMauXBi82EVR603FgmOsv0/l8ognD64EQBIigzJI2BC4nJIIPe8vZgGJ6x44pMISzwANwYyz02c0IrwrLJuri1ivBRdTZ2D3LDARvh5JIsaHscHGxKSGYTMkFwItCiN/vjETpoW1o8GG0P5QpIQvtplkuDqBMXhYi4WrbdLsb1a70ILbJLltmKsZar3j/YHA6iXZhJw9Ld9rgd9vaqs+5JI97hRjIV/CRRyQajFhkIpjLsmawJq8Z2cJGeIj2OWESUzXyuC/NSdGW+67f/P3FG8XvDILUicRXL2j4awBYat+Ia6QlbpHErjP1FnTMTrNyB+CDZmX+RI0n8i4VofxL2+lAsRrvji8w1nlEhZAb7onuQL7XF8TA2rjLaFvfOtLeudP/AqiWVvSZOwlgKSuGFwVZ8FRkHROXEbK5LdZEYhonqeAZHjFRiaeTRTKnYin0NdN9VLhY3usZL1ocaYeeQDMcDBNfZL0bD0Ct91mOwPcDaIrnUsjw/gnPVYA7ZMZvObLeFgVpK7rUUYfE4hq4FTko8ycWR9AyBXMYRU2ZdNiHOOURMz61wvWOiBYuuAwX24x2sxog1R54xifSGVpJRy10SYWl7/yMRevf4QF/GwI4hqUk0pFLqxk9jLifPI2jsRSJlnreZoA2XTzCVM1QxFqh6Dx/YzKGhUrl6fp1gnIk3Ki4J3NseHWyYCKAnqbwVNAQZd1tgbtuyPo61nEvgzHKK6YEifioFgQpaayYSSdSoCdtu847u+p0gPFszwBNHvSPc+ehge5tANGo/EF/RdA3N2sJRmspuMFXfrjLRhR2xFcaDY/nJcuYRyf4smkCucTAV/0AcOsoxU6wGXpJsHOQXoVgdT7bQW3kDge05H4FeYtPJb0bj4cE0dFsvhmorPahPa3XE9Xh9zTWpvMpqt+77LsCfr27kzwUAumpcOLkWxxxPZRx3Y7txPJWHHU40NzM62AvQedYhUvhDTs85okQWG4gW4FTsHGDZJi63aPrFMi7ti8Hjzv0etbyGNWf9jaNLIzphFW8dmSZ2CYKLWALm27zBXFLYmDn3x/oLWCfcjUDAtnReYtdWFuURCQmB7lbjjGA895ox46+u2tcgWcKCjZZAOXf9v4AVwuIbfql9yrZlrWy8AbvNKd7ahIA1YpCy5vQ+EoyrErEWsdqT92SZbJG7jsHsIedMFQgjsrI2DIFb7O5G2UcVy5VqqdtY7dpiIuvc79kHpYwQNT3nSqSil59sJb3Aj2YS86MdZpEDKPY3lfUG3DdPWrGpzliTX8Xtpe7BZEAPdX8Q7Q97l4wYr4hvY7JGaul/c3jAmcm1tm8yzCTV8Hs4sFDhvB1o05S1wmEPX37XVsjuG6StsMeRFV0CRI/MUgNmBlEpHIa4/ghhtnYwnA6k9XCyOgiH/XW7FCzQFqrA3CMMOn1PxeUUAxSfr9aTk3RKPtwdvFhaEs+Z04y1nkDZ2IDmEtO6kHDzR/19OVYy5tCBsmfRJp7PfrzSm1xN2Wb/AQ1KKgOg0sOm1KLrKXKreFSDxNLKNAdAUs79V6VU4mqR+1IsnBFcQtExyl6Cx08IbNXawHaOZiKQwuWfsLMzlUuoWXMsDSJLM3610NiwhgLtybt50M6TqY0vhG47Hg/7Z8zq4jYj+quJWHsp2vKAQMLkUoX4BVWi8QE2zUxWXybL5ouHPJmNQX8nRGXoOovqcVqI6f3+gHOhtJ6dDhCZaW9vvxKN77mbcC/9wDpOIITFkB4JcdjPyyk+s4WzEWeyUsAMGYvhlXx5Ns8I1UaZi6xCI9+SsWvU+bwlyeSrzbIExOVOGeXzgbR5+OmeT5vTAuesEfLr/XVsyMyBxZ7l79rf7UWhWlCeASzy7n1MR3w5+UKVSWUtwdOm0vwRZZwNi7pn1DN6mJPUop4+iJrW+RQ/HD15l8ZRwwveNwu+oj7oDWfLYSbvX7R6SRrp1kj9q9Y/5hT2t6zRQ6QX1W0OtO2FgygYb0+dXgZSRKPv1gQrxqPOfp9pdh35JXAIxTCm+QnydjuLMT+lI4HajI94I1Foky3Ndf+3YpML/POaUV7B3n5JE3BOFc2M9xc1EehDBvhD3viFeJbBAWf8IEQyjPYakyKc/hxluVAbj0fDAVGd4aW4hc9jLnc5xUmYyY6J2bmfOLtDp4ZmCt4SF4gqztA/G6PdJp0UvD0pMP71rODn4gLZp2fod8ToVH9wGWw3KP81HRlkH6SQIBjqE25ZBWcJ45I/TJVIhwX3yRTOdkqwf5TCSo8E96mUP9fsobcRNyT6t/UVe1hISOnlh41QIDRrYPaVJrgcJVl8GtZoemlddpPGpI8gqC94+mvxWpv9arbY79PqxXAz2Hmd+DdASYX0qe9b0wXr8Lci8u0WnRimlKy9XxMciwz9vKC+Rh/ERzu4pxt5KxFCzFznQYq/HJ8emSZR7s/GebPMfyauj+3FGaOan2PGirczqD+P6cJkK1whtG/jmMX5Sv8y4yKTWgq3I/RAv5KtM4VmKiP1657+Ps8NUAb8Fq1eNMtaIyBLIeGMIMHLyfDbsCVyTuQQZAvMAH5gvuk8+/POaI9chGnSr+LkRKA5PwkLB5ssluz0v5QcOAM5tXKdo7+u51AcZD+g9T8bE2v8xTdrNY4ztov7cYVqeCEcqpz6bROVdb7ptTFsiSsY397OpLe/K/aXHXNZXXcIZQlPJ9j4kcayuv4wzpKemaJGeWL86afFj1cPvwLaVmgnJesIvUTb1BPVIy5DWuKO4ItsJuo69cgYtkXrkk2F925Qj5rHWLKNIZu+C1bSsVnOFj9fZqjONkOE+wkxbIu+xbCTRX+tVk+MM7bsfiE1UaERh629vfGoKie4A47HSqvvmCtle39getDD45xRvARdSUhKAxQslC6zU6WpvjNNZbcvmZo0yUvTJNgOCe2D/q40OsBNQHvuCydjil6WLqq7lzT2Fc8+98WXF7rlVhNuFS4vJcJnfa4pV8up4qK8srnArUUKl+xOD3DpzMaKsYmZD7mKNZSJin8cih7jsUHkm9SHufcaofI790pUloH8cYyoMjPk/wRH9IEq6yuHt7/2ZNY7eEpVc/iL+S5yOTkd73Ay6DdGjbZ7XhOpb9V/mOCJa6YLPqmTOLn6F4+LQtFq4fWvnvqM0TYzPEFFmEf9MtN0YdAfzBr9EYNr2xC/oJ6lfpTuR+Vev9WutiljAG9NnUUXHGjF7RnEqs4bo7FoIYt+5uyCa8mBtuBZ1ExiUMtJxhY+O8Ig4ICvSGpRz+VAn9x+cUPhMrbweX3EB4vDao24cTiWylqC/B5OJH07KalFlQSsRA17+qfsqjmEJVoVnPGKXu6p30ztrQ07FoZ19WVIW3UNJU8f6ri/muUtSTkyO7+7hFpWN6XzlqRuUcbuqIerh6SyluBei0GW1SPVQ5OMLWzZvPnhxqPVw2Y5Wxxs4w7MvITHzrK2/D5bwaKE4nFphKX55tD4I2whWj/JwbakO5uYoos/3H4IZQm3pd21cLwXTvF9P6/1HWmEpdmxLcdIobpzHmXpduUCBZ1DLMf71XAb4zabdab4B3WaoCUTfYjitTOKwng6He9dgcsPHaa5EqPXzYhmJQPZw/YRdhQUmfvhwzTtMZs1pTOS12vZl3FQ0ckIU82omX6jaT8i56z85qEo1Eu9zbG4BYyvbFwAcD/pcLa3CfrNDi1DTJA/5ZBmTAn2LQ7L4uJbI+iiMm9zSJqyQsuwf9bhbFMJ+u0OLU0lyJ9zSNNUgn2HwwZmfS06mp+Un/d22Wjsnp3MyVQ9VN1yJbwVjWYkvwQQI6MKCnvsMrbwhSYv48Ja04fz6bwlGRpUs9cXiw/JXjpvSWgQVJGVwPQYJVWr6gGDPH1gf0hRVpdM3paW1Ke0yZaTbjuGNPDHtggTbdyNWcGnbQGncxyu0+pPbNb6DOQ/Y/NNNiV262DwYql1Wv3tHNq0XyEYENGlr9iidMdtUUn9O1e0Oxj2XdW1yVgeC/+dLXHdMksI9t/PYa0QgP57izZsDP8gHG4zOV+1+HjbpYqqqu/nYAOyhb84icL7ZOkfYNF/wKLNTz3q6ndszvXZrRQtfcTjvplBc5DNqN+VDTfOfHSuhukFMsIxYKqa6s+4EQpGyPZabw9d6k1EwT7nIUDu6kOOpsaN/j5RSHsLEUhYLyl41aygQDs7MzuH6ft+PWNlzv4f0urHUrg2tbhSeUMKVZrdrvy4DnvJ8/qzXPrPqJq4AOHkQhiYCKbS6ldw8000iUJD3+I8NkPJL1ZW1K/O+uquUj6qOVGhLPFNRJsi1Va/kWqqTaRnfCCr/IE0Za1Hhv+MTfpNTSYuSY3ggxIMIQRq8uyyLO2wJwH2D6UaCMzjkwAhm+bNgxUxMn8062plxjpSX/X0l2ZFZimYIROsUv/kqf+hbVRTPGLET3/C5edCn1/V+i/juZGDODzUP2r+n+B8Dsdg/ssMU2Wk5gyt/lmr/zrDm9psvezD/22Gpb7F/dMMV0TqWCzT1QgW+n/NysTRSsKFX9fqf2tOwId+Un9U/WeL7bDyTu2X1X9nhs1Z8ApX22/XxJQetHgdNWNK1de0+rQ3QpwPXbi/TRM53QJPzH/rfJXt6kAixJ/z1Hd5Q3xORPDCILxoaF+WUa/3TOecK4mDqtUbCOWYZSsydBQuSvaVH8ej7IfjJsKwidKoV3rqnaKne/uG3Usz6he8iyYMKRf7HHQlJqFe66kfTKGL9peci+AtsmSHyjX0dBLGP/R8jad+yJUXe1scN/IwjJhzgnDqda6kMto/mCb3AJ/01E+4AtmZiXqjO29ymPL4AobHSMKrPfXTGJANgw8w1+dlghnezzjaWjjt9WVAn/JwJS3OvyAzQShIf4/DNNnpsfaXauHowBrgz3r6ez2zWq3xxdhKRmzc6r0WjX052BvNlfyKLaGClQ1iG556n0Va8g3ZOQz6V4mloVMcyfzRwd6qyB8nlb/w1P+0ekxBiW7HBZ/31HcSqcCAMtlHDGB3vuf0zI81R0gUoz4+y9nigqytNYj+SPohpuLEZUhLXAxNQC4WlYa9iDt1OdaS+xGKV0F9JuZtCZpwwzzGklX3BoynOiCB5EYSl7PFtaloF8blPEYEgpvTeUvS2EQE5n7e/Fj16MM4S3oWyUAK0k4IzsljLsda8nMcE/sEUs3vgWlPPVU9+RDKEr7ATkLAwRRcxFavnzKPsnToCMEKswiR7H7PUE+dx1iyTbQOgy7Bw4hwlv6mVN5SbNlXQyIDBFjVrbOsLe9vixGpcUoiRGDWkKWKLkNaYnTRtD1eZQ20ksNrnLUEF+xYCsy6lYu4PtQXJaqEMfkLrV+pmTkjmyIFlL1aR2b3m/0U6z71k1gs8aiDvfF4usvUsKhvdnScnyMuXjaxbLbFtkxOxD2tADD8RUfIQrFOWya+zpyq56v3wDbB0XuY/LLmEpoYpfg2k3BUGohFk3cH73VcEnPyZU0IreduBb+i1e/ENtlG6QRdNSuw7ixyTn1Ej6hLNIWsMf6f0up3TQxueOgNw8c0e7grkE1uCuOYgF7+Xlw2m92KzCIjEYKPaxhcRpGfvRT4pFa/bwgQDnO9dL/6UzMXPfbDCTF8mUd3zSB+e56NzyyA2P/PWzevCE+aZN5kPU6rv5oxkFsA4fAgDL6gz4eXCLPs7DCz/+xxnXBhjNfiiwlt7k4IuTHff6Olp2LROfzvFsLt8QTvhiiODPB+/R9ctLjKlhXhvur/qKcst8RmZObVFz31n1gQOrrbIJaMntJRdskxdpEQFTAd+W52vGg6czdf4YV7m2HfMHhJho2AgNNuLewP7OPLj2bYdhAK1llWme45SWIH+2EvGuztDzkVxI9+mr1ROJThvtHbne6ZAONXM+pdngRvWtgZ9cWM+kWvt8UgTeil2tskorqi3u1dEBIwptHPZtR7EkwRW3Owx3jEUdtnc1a/nJTJ+adwKWB7ouSNnvpAUiI4CrEKGf3+NBZP971a/VqCaoUcP5FgI4IfzxC0jkukK+a+AJ3NqN9I8G3WdlTHQNDxL3g4EqN+L5ZT6cfbPfV7Dh3vmoJ+l6c+hmtPeFcIAyaRU/aXMur32XdT92BM3sc9pp+NHCf7pZ76A/YrXHC21m2J6v9dRv2pZxeZpTDyUOlza8ZOuyUK3LIRvZkl+VqG7XBisfYksqL+0uuPtwguEkNM8/77jPorbx31mLkzXqaHzd0nS8f0Hh3rVcfyy0rupDm0S3czNcHmbWtqWZ68cJWpmvlOIHea3IyvyccgBN+NkV7N/vg906k7KOvIJNtNsDnzebHVRmvDXqYumHwhXzzjEIsGYa7gl/AK8EFSXo23wLA4dw7YbzndaJRYFHOGSD9f703MFZYtRFAYWRZckKpisblB1LDVbH7BtltylnDOZeOiWkSdE4Pcf2ItjP0A9FJvEEQ6PM1iTAbI2us8recLfUouwQoLwtrNXkSsO4EsOQmb8fhReBwq9SmCSUbcY3tDSX8upGhE6xIZtxRv8FRmfQ6jbqlVgqBifpCpio2WfOenlS9VOvJeRMvHq9Za8qU2+SKBpfJmyEq95JsXUpnAPKbpbsTfvcgGbZY0VStnEc18ST55ET9Sk4+apbD2ycXiPDJ+brE0j07eYyyvV4JKoSrCdURe8pjvapFZ2eBeWn4keTT5Gsex5INd0pTpRPfwmI/P05jWLyM6MSOy/bgyr5OXkV2Z3alCo1UCIQ0mU3iVQ7qaCf5qhzctJthrHNY2kKCvNZ98qLe78iNhv9Wu+NLedXYqi42OPGBJrdL1tUq9G8/bDbX82SRzo5QkE3mTFCW5m2OREgOdWO+Z8L4pJbxpEp9yJDiRUbBoFcY8EWOhBnW/8tqS5QCBeeO4kLbOs3beQjsPSudDJI0N+rCbPcVB6+aryK4KeYrt2y5j62h8CGYsI5CYHS9vNoqmawCyFKt3wOqycp/CGZt9VyA9s6QVzl1mM1Oe+8iHir+y55ild6VZY+9OGkuV+xTOGhMkO3PcUkyHnR31zHaop9LwO6HgAINNrMcLkpkSeuFIw5b2Xk9lL3C9ZDLv81Ru7yAabJnc+z21YFm3E3JPTwWuhqMdgoXYLEuwHnPwcKSmOAkY1llpLWGJAR6z75WkcxGdmrbhVosg9bhUnF0mc2GtvNyI/lpDB6t+uE09hOnF473NQbjqfoJSt0PNbKWr15OKH2B46cdmueKV6VR2ZohU2hBpeY3aqpSwld3AfGOxSzdYzUq97Lcq7a68SOwG8qN/W5CZa2F2K87Y4yGgIbJnfJiFmSMuyaiX7OKO7Lg4TyNQveF6XCPDPja7VlxRWS6pZ9UrUjdnlv0jrF565Iv7E3lQgd9oeEXEL9XSXPMGz54kZ1ALo8zi0trMa7V9y2lzCNFc5ba0Ke+WzU+nzRSS6PjVMNOF2aoX/a485QUxX7t5qG/ICWow2nHZFa0HzqeVd+0O+zFPe5UUep4JPKbSp497Spx9puobELeFktVo1JqNut0VFf3F95HP4El/tXUrzAmBDdF+98Z9zkaZJ9WkWobd9UuIhX235+XbGOuyX0JCIJHP9wRd+5VXKWbn7WDKpaVOGp+1jc0Hj1TGfYNItVudejHf9gG1+cqie7zmHtjNDMHc000Lr3MAQnIMyoWJ6lbUMhsmJ8tBXCEJGtmpWcwX3bt6FfjiQ9jPhs7WV75s5qYjY5DdwK+ygZpS500C5eiqzJTz0tKNEcLHRx5P5LCEaHt4gwag61MkEg8M0A0xXU86idrsO5QbTbrOAAozjE+jP4MtwzNruRPz8HQuMk1zEW5wlKI5bXs3jg4scgu4DRJtYfubi1mqk+1zTT8otirmSwSq2JQF0u4H+l4xkA07czq/nk9osuV2TVQkdzow87lgvLF7BbXYPNcuG+TSmrjQy4FBHwk2KsbhWjnTkHeKQEdbnUAwxwp586mJ47jz8jEpo3QnKuLVEs7wUzE4DJn5sKiOC0tISFyIVScxljBPkEA+cvWgL7VYmH2HZE6sKRMN9dpYiiqHWWGsvOwQECmD2+bBECNkFuDLmLwBpx5O6TLT8RMe8/u6+gEn3wm5rOU0sn6wtzQENLW/gipfobbXj09XvSHHAPV3rPI8SsaM2v49m0F/fHHEoU/eG3EmwV7mVA6JiOhtONq6NMMuyACYiMnUhXdyalHePU4i07fGdpVypGOpMBueyho/zuiw6tRnGZ0423gB3ar9fkVG+Nh6ObN+4JSrE9PohEuM8Yz7cG+nYfQ/U/bzFANlS3NDhrBqvu6gWuYjKXq+2M0INrFmP5MGifLPJvDspzFCGUd1vNxANhjNxFP5ayymLeDWwdPzj7oj1gg3S37yuwexMztMYi7h7Bsu3uJg1kIbNLdErHKCmrsOQniSgtRtUAYD355Fc3BoLgvm5AiyscpSQXwOgmLUW9iTs3KZeCEo8otJ39adD9s2jhMKwsDfw3ZYHI8IBsCkN8ybXshe1XMQk8CZ0hGYA1zCL29IlHfTrBvifKAgTOcM14aUaztvhkmPcu7SLjujkd7bAaVGecXLL/k5ilwMUW7YtOTHHDHGXuUtyYGds+4VYn7Ll8cOj8waZEfl/ih1c7hi+7vKvY2Uq2V9FMWe9CyB06pNdWxq5jiecTMlx+dx62Jk1Ccy6oRZMDeZr/LUSdi55lu0PrXRkrjHRPkxVKPOZFgZ1cOLHANAXTXPWv2Dp66eRxmzw+pdYxoLzg/222OZYub32gRVuJTfM17usrqOKbRrzgVLRl+fZGcy8o+evuFQV+0spPp64yGCSizqF8LEV5Jg3k2JUAX0W6L0TXO7RzDBbX0E2lLvV2c/RWCPd1pS4oZtK8TunPHPxS/jMVhn6uzgnCzrBASqVWNW9NlC42wXpwjYawZ3kmTYj9rFspxKyWXPzHTPBEVkl4xUTiPWBuva+jrWokyn7bMyzzswv8w2Lz1ZcK/G6KSPXtbk9Z7Nh325lKz0IfUSVOFSgsxsEyk7Y9y7rM/+YSOn3lHHPZpsdQzkTQdTFpsK0/jTBrYge1Eur1jF3K653QJaCIVRm75SvpjQV/awZeVeJL8PWtpGE1jnNG55fzK+gPxJqP4Ilyw7AwRAtjLyK0xJakmOsnLuRtLLHMRjkaMTqxm4EJWgcIMhnB9xlflD15IrUm/pwIxEx0OU/TnuSGa+4ewVR5O7wmgW5ik33Cwdno54zpbW6Y4E3FnArd7oQi+SmHboXhFhuve50xi6biPEnsmXQhF4E++zldasNGRr8kFdYWXjdk9W2pYbptXxVs+MZ1N5KXTA5oO2jEfyDYD+YY7FIbeoSsvRmcPkvtEY6geHtNDcV0PvrloSI+W1WVCEGR/RmkelzQ9ugVwLenc8jfbHU5f1Ig4ZDo61Lqls1y03tjlH9Y0YsKJW5SuxURiPXFnWVStgIvc5M00rffVmLdssRgTqfiA7MQq3yUYYbBEMFeef5lzrkXpNBuctsT2Jn4C+zyK9quVzDjbBYt2Wp3C4Xk1qb3IEj38hszhmvzGNvTaj9Ci8mGS8y/pYkj5mgOLRgGEsg6hsKSujenjx0BAYVD/p3OsyOOnxeW4qZlsuaYTrYmWGJhThOpeLJGda0YebjbsXzPGhd1HMJ4XOmp/6qDdlVE6Uu2gl1MtE8+LnBNYtknkMW0e0XD7TJh/ENQ7Vxnr2cSS+Yf35uW+aLqmMfMCswsHQrFieoKIFOaXVapW2zXjzVbGd5nqVPuwbLgxMnsHsMPfy7BDD6X6PRSYTyCQSiJLfOKCe0dzM6GEvmsbCYbmr17P4l6MD2HDd8uYM5jjFPot4onQJ/8zmvLzEIlvhDPAAauxFhj5R0mRW7M+VkMjLm5YeXaGjQdIjx9R1IlJvzej5ThrbQQhsZoW4goi5rcpcWpYKd4tKyXwR4szoRco4oNvfRBKhYFkxtkw4hhGb17Z5b10c2Nk5XrxKcdK4FSbsVZFtQJe5SZ1uhr0pS4qe+hKoMDEHVSA8nOR0h42DRqVD3i0RLdNnphMjmDClp57zHYijcQOlXoAqin23LmFOjLYx7i9H6/boZ6hekVGLidByG7o03qShC4xTLerlfsiGEtYtzyPoLGpsLHCkXpnRK3aKY6vL3U9GvhIzbyMj9eqMPkZTE3q7oo6bNYtpylZh0YQTc/jmFewk1e8XR9GRxOxLMrOYvlP75GZCQ8Q4o6/aSq3S2zPq6gtz6/EOfEPUc2NCYIG5u1a++bSKmxaw2giRVtelTEdsgrgGwjecssDOZLwho26QbJDM4hsz6sZkUfLmUBKwUDdtczsYNUZtiF1drW7eTdb/nRl1S8AMc2Lv7e/eexCaGHHknEOxGkwATuE+aorSCMJ1KRmRpzeHLKCJADh1QkBsY63QziNEViastyG9czHhpUHU7LFSIkh6Cr4V7vUIXI52bGiXJcETAm+ymSmQLOqiytJQQXy3nAsLL3LsZj1bCAzz2Q/AtqFmLHv7pvJiBKojX93ACavN4sqo4KwLVJCVg4jGpQIQov2NObP3BNPxPs4WLJLd041QzykOkkxZYTLu9bfgScB9rnhrftrei02Z0tREvQ97tx8zVr+ewZbE8tpMo20MXr0fZavBmKEo72FCJfqcbspDbA1g7hHdoqpXeDrLVDitj9S7Mjpnlle9VOsFgQq9CA2xRvShEqDuDZ2uLva2tmhAZdVSJKGQIAkPLsf5tnTkOepInC+O6ffIop+nVsxvhulUTh01oBMnznkmu5r468dtw83epSETCeJENCfE5hYko0+mhpbI63sy6tQ2nNZdWGFRXWW4V5ACpB4jealxMI0G/dAfbQ2xMxxDxTKztFcbwiaTih29X10ziIocndHiIQZ92Bn1xwG3+efVBzP6OoNqhSnU9ZvxqkfqAxl9wyTcsgobhC86CNF4F8VaVDeadgr4VVu7gfk59CodtkO/yZT5nBIJwMm8vcxTN++PiTddGm3ljdgQUlO3JL8D5BohNI6hfCjpIXhB00vykKRiLweqdIkRPKw02N4u7h7I8WolNWsYZG339gWJlZkf+tcpRlCw98bNMFORtbBb75zNVSJjSlkoWljYEu5R3vwugzlt7zJ7gqKJxU1O+zL9yEJ5gPGdbO1eogm9tH85bvlKxPH4juxfGb8i44vFhUsuhhCPEJbWgomIM0Y3D5H6ELu3ZAvSnpBlNwVqmhbq8xxy+1fCLrTiFzhmpZTnPlJe6pKYP8Kg4r/UoxPSkgipx4kVuGwPVHoSFxo+H8EqpAMOBkkwkfsTP1+HmVqtNvJtUs31vL3g9fLVivn7YzbCDiDfumj5gfubRrmauR9YSN9TLcaNtEL7smbW2MI3bixpw3LNpbkuxFzzIxsaZhN4kGujFeVts2Iuhw9J/LEXSTAta3wNi3+ByoUP7E8wPci+RX0K87fnLnvUZ8TdcM9rLObdhF79pEoSZFKn5IlBclfh/jCMzcqfiZA/EWD/lIINx5r7E/dXqkoVWUmgrH9vJ1+Vmc7VG9zlSI7MArc38mevzJQtJpkulx0xydJaS/7wXMsUkF9O59OER+y3nVfMFB+lFZJjdvIrq9Kb49Sq278McoL+dmvcHnerjcYZcx11cjZ05CxMMsk8fBI3d4bOT3YOJHxiAlSJ3NXi2TVxG1bKRvOhmckmNGx/Bh+pT2dmbwFEjnDRTYmE5nQfhBGsj1Gdduel7ePsfXHVgDsqlIzaA7E7emQtDlv13NVmQi9M1qUdgq3JBfnnD/XFEviUivezB38kFeYXUjRmZPaShytVbBiulBscG5QWqWjJuzj1AvcdEVXotNtWdrh4kYurbL7FTV7VB3xY3YbF7pT7MHOLQ+butlzyATzHfdLIil45NhYtCdizyOZPLQVx5nYy7ThzB5lOnLmTzHqcka+1bsQZ+WLrWcmYON251QY3AgLdJ991KpgvZ3+z/IEk24Hn17hgkMievYb4FtPNrvu7e/dvxH/vj0tIv3iGkB+wJ5/PcRSZml/vVNq+vNnJxXCKdiHGybMYmbnFRtO1vEScEC0IAtun5ZjiCFdiRBktdiXw861i2TI7mr5ilD9xaId4PGhW6smCnLBRSKCTjIXkFEkzXzd/Q+oquQqzzK5ut3xfegZ8DQfhQsPir5XRkV4n9yoWdb0MgvQGSW2/bjS9ldOUaN1NNCHkgDcLW9JbJHWsHpJvygVKvOYPnbupeXgxH8/II9ykPhIT26nVkzV8VEk+YR4br0eXuEB18GNKFXmN1DDm4LGl2detHufXmuV8UAmAH7/qmxP+E1Yra52WtPnENb/ut8zH8Z8Uj+HJ0hzyA/iUSk2Sp3I37yPVpqVvcuO7VVI3bbex38lE317zrYjdgb0S/nfJ5kNH4hE/rWX+pNw9JHFzTweWFk29ZwQElk3Tz8Qys/72SvRZ5o8EJNln04g0+1z50zSkz2uzT9nlQCYaYq8BC4W8/F07oCKr2qz6MiPWXpacnFfqqyJoPsdj4bcqKkCKMK7Z/las1AGdzhPulsbPVBvSv2ot37q3Y1a4Zq/ngeBYMy02DHWpkrfEzQS6t3boRamn+1G/KE/6zUcwzF8YNacsa1dDzJUYs69gzNJFPnjMmPlGohixbcHjVJpYSm2MRzPgDHPY5cwUZUNtuuejBDftl8/U7MtnZHSJ06TsBfPEmaq/ljd/lOoKH0wj58m1tbwgVtXYNs4soZ7ZGQ+zR5JBJu1WWhZDlyvfzr8LZeG0WL6Tf5fKd/Hvcvlu/j1SjqVlJRGVo4k9O8aGjpgFgMeF5kRZsCcRPZJTczp2lXl8cnVH/r0GeeiQXluVb/FfVxLc9aU2/95QEi25MdGSm4Bmynmzk5Jb8AZIHiKPgB5q1OBhifQ+PKjljQY/Qnr1SK5Mhc+j7uWfR5dWpfZj8oWCdPOx7inA44xwPb4lA3iCe1r0RBEn0ifJ314lfTLbPMlTAvsXV596xv4VBjSF5FZ0hOQ2GcztgrhDBncnYiq70l0F8xcH7i6UZGWeFmAHSe8xXXj6hkme0awU23bAzwwanZb5wtGzrAV4ttOQ51TzBWM/nxv/PdHnJfY2b99zABWk/2IegIuY+XjxSsB2DjETZ9FFX0a52ui0La+1eCMALsempLIqf/HUfszxNDJo382cKV7x8bTKuC1XmfeT7dlfItIGEIyUgPD+D8c+AADVvAl0lUXW7/2ckxBkxggmIpM4gUKCKDZKEhRNBEXbobW7aYOCzA50Q6JoK2KAzKINaisgxgQRHGhApeFkQAVRwYGEgBDAAVESUEBETIvo9/vXec5h837vvbfvuqvXute14rNP/at27b1rV9WuiUAg6MV4Let/XlnfuvUNwwdNHjFwwi3ZYydeOXj0Hb/Jzph05/0Xeqd47bxAe+/0QCcvNjbgeUEvNtDkygl3ZN896p4sLy5w0sOe5zXz2nqVQc8LeI6jd4YXG2xy/fAxo7pecDxLS334z31c/lNEtgncp4JBV7CbCg6+J2vUxHuG39X1t/fcdX/XK4bfc+/wSV6c979mMzOAAOeME6cAIrRqcuOECXd37zpuZPc/39mjZ9d7ht89qmuPrkq87YoJ99wz6o6scRPuEX7bRNIuUK7uo5XTT+lzPGXkuIl+dn7CZHDWqLsH33MjmVRe+cL8yTlq0h0Tx/1ZeXt2nTjqL9mjJmWNGnnTXROyJpHH5+xzGTh8TNfj5e8ePtllAwizBz6O/pvcR1AmzPz6u4bfP2qi4R/mcNe40aOunzDunqxJLn9EGvfjeOEhVPBfS44efm/GhAkje3alYXt2vW/UuDFjs3p2Het/Rw7PGvXb0VfD2bE6zjdr+Li7hoy6Z0zWWPj+btyYURP/E4zTh4+5a9R/gvGV0ZYn03HmXXt47Wfgd11x9u444FSvx2D5rXftqJHjsu/23I9e/o/zAjeK+X9h0FyJ/6ee2DzsKjeSSeWVL8yfnP8rX5moQmEuA/8HnuizBz6O/pvcR1AmzPz/xBObN/8PuWLz/5QrNv9PuWLz5ldG255cx7nji7GFnndPAe7YpGXAm5GR0CmYX3Vfn5jxiZlZsbjp1KbTPe9gEy+uvRfwchcUXRcsmNLnx5gZQW+qgdvHDQXOq0lvGiwYUfFTTO6J8NC4EsZX4WOC+XWdfxeT53ldDV4SiFvlZ3g3WDBv0C5lmGoyrArEHVOG/PrSU4IFI6+aE5P3y6+fmQzHAnGhYDjDFYzi+d4J/EPBuHIfnRQs7B3oqwzXmwzlwbjZDP3KUBYs7FrSTxmmmgyzY+K+8TNsIsPKS5RhqcnwTUzcO7FkKMiq1kwG+rlB34mNW+ejpwXzS0qHx2Dxk0yGdbFxn8V6cbVMlEHXCjGeUA/DTylOutoLBILTx6f0t0ggbkpi5kVCZoxP6WORoI8EgzNK6tZZJEbIWi8QE8wdX3GDRWLjHgrV53iB2GBu7jUPW6RJ3EM16W28QJNgbsnQ+RaJi3vw3upjXiAumBsaV26RpqrnMtWTN/7WWIuc5NfTNJjXeObpFmkWN8XzUrzAScG83P6XW6R53JRQfUcv0CyYFz/pDou08Lk1D+aVXPqARVrGPbSg6Bzpk5eUU2iRVr4+LYJ5oWZzLNI6bkpW9QVeoGUwb9AXVRZpEzdlWNaZsmhebf0XFmkrTbFoq2B+n/yWFjk5bkrvUE9JkN84t7NF4n0JmtHVbjvHIqf4+uAE6muR5PYnOIFFTlX1NHXYCSyS4CNhJ7BIohBEbu2cwCKnxT1UUb/FC7TBCV6ebpEOcVMWFE1WPbklP31mkdPFjXow56dntbdIR9+cION/vsQinXykFU6waZhFOvtGa4sTHM2xSBch3bzAyTjBly9YpGvcQ71DD8pB80qurrDIGb6DBnCCmvUW6XZc6tC/DljkTF+2mGD+grHNLXKW3zg06PgPTtD0bL9Bm+AEj3eyyDm+BHE4waazLHKuJKCLtMYJBpxgne5+K8QH83PLB1mkR9xDw7IKpE/+kH/cZJHzxA19QOKvGG2R830kyMi7ZbJFegrBD05hROo22yK94h7yvN3OBqNnPm+RJN8GTYP5SYdesUhytPvmHz622iK9o903P3RatUUu8LlRT85DOyzSx0faBfMHfbHHIhfGPXRv9f2untbHDlnkomg9BeNbBi3S1+fWPFhwXVVTi1wcHSYK+mxsYZHfRNu0oN3yNhbpF23TgsabTrHIJbKoa9OCHQUn+MGl0TYtqLrqbIv0j7ZpQelb51kkRdxoOZDcFhdZJNVHgsGCsTenWiRNyFrWXcGCIV2uscgAtc+lsnVB7yd/Z5HLfOs0DRbEXzXUIperTIpsXXDkgzssMvC4reuG3mWRK3xu1FPRcqJFrvSRdsGCkqr7LJIebdOC6UMeskjG8XpG182wyFU+N9r06uIiiww63qZJ8x+zyGC/TWm5tlNnW+Rq2Y2Wo7UP93jWItf4rU3Lbd1QYpEhfsu1ChaE0hda5FqNVW4UK5j/239Y5Doh3TSKFeQ0W2mR30ZHsYKRZZUWud6XAD8YlP6WRW6Q1PhBi2BBz8fWW+TG6ChW0PqdTRa5ybcbrXDo3m0W+d3xVqiN/cwiNx9vhZWz9ljkFp8btp535bcW+b1va8pMOec7i/zBL3NqUAFf00jyUA067WSanJe++8kif/JN0yo4vbYxySK3ypwYWpNch+4WyZRp6AinMsndGrTIML+eFkxyLbpZ5DbfaB6TXOhOi9wenYBzQwUhiwxXPRcJyRt/V9AiI3yEmKFx9rkWuUMIshEd5ZYPs8hI3zRELfHTsi0yyjenJrnmMywy2nePOCa5WbMtMkb14NTUE7rkBKnH+vUQhQ0KVFtkXLTL59Um/miR8VEnyO+zqKVF7vS5NWeSa5FokbuiXTG/KrmrRe729WnBJPf9Cda5x2+Flkxyt11qkQnRKCw//strLPJnaYpFicLq7h1jkb/4HoJsJYX3W2TicdlGL3nEIpN82Zi0kyYWWCRL9WBR6jn8zjyLZPv1JDDJbVtikXtVJl6DQX7Otastcp/KdNPQkj/orY0WmewPLQQUrW/eYZH7/dZmAq59+kuLPOC33MnB/HkLjljkr37/YWjp841nkQd9bgwt7WbGWuQhSY33MrQ0ftLKIlP89mHg3dEqwSIPRy1aUNXldItMDfgmZRQtDXSx0CNATleG0dy/nmWhnIAMhFETmedm9LLQNCCn7WlMdC1+Y6HpQImZvR3D3n0vs9AMIMcwgaluwGAL5QK5ZmJkPjL5BgvlIaGzHwzrfrrFQvmUcgyZUSpib7dQAZDzlQ5Md0vGWagQaFjWYC9wOvNdySQLFQWOt8jogfdZqJhSrkmQ8OriqRZ6NCIheiUFcy0005VCL8bhtikzLfQYpfx+W3D429kWehwo0pRbf/27hf4G5JoSbwp9MddCsyLCY435056z0GwnBtYgNMpZtdhCT8AwEhuNvG+ZhZ4Ecr6BNQZ9t8JCTzmGWAOoZ/83LfT3CER41HrG+xZ62kEMFMyLh677xELPUJezBhNjrbfTQnOAIjPjypm7LDQXhv6oWDCv4z4LzaOUY4gNp3x00ELPAjkbUmrE0sMWmg/kSnV0s+OYSHqJq+g6DYvTx1dcYaHngdy42IlF4M/qJlGoFMh1k1gmyKHrLFRGRU4G7QWkBC20AMjJoM2ADckWegHIldJuQN11Flp4vPVzQw13WuhFxHCtT121/VZZaBEMXV1Ng7kH3/3aQosp5YRnLsr962kWegnIN3te/Gv9LfRyhKH2BB640UKvAPlenZf09ggLvQrk9GK2Dg2eaKEl1OV8piWT5V8WW+gfQM7ynZktJ39goaVAxUkd1P3zRly/30LLgPzuz3zZwkLLIzZkHVf123gLvUYp59WM77lfapyMQq8jvN/984d8fEJ7veFK0f2Z5eKvuMxCKyjlVGZCr4sbZKF/AjkbhkO0dyPpq0h3sVM0RotCISAnQzRIi0LlyOAGyWiUFoUqgJxto2FaFKqEoasrGqdFoSpKuSmoI07oArUotBrI7ya5ocUVFnoTyDVWJ0K1WwMWegvIeRqRUuOkcy30NmI4U+Azuf3TLLQGyBmQmCx+zbUWWhtpR4KykqtvtdA71OX3hbykQzkWWgdDVxdhWWjVMxZ6l1JOQvrCoOrVFnoPKNIXak/aZaH3IwzpCyM2NlpoPZDfF/Ibi2IttAHI6UVsVvXblhb6gLqc5QnOcss7W+hDIGdeorMhA3pb6CMg18qETfGbrrHQx0DON4jP6r7OtNBGxIhIWNJ8tIWqgZyERGijP7rbQjUwdOalrqRuj1hoE5Cri25yuK/muyhUC+S6CUFaaHGZhTYDRaK0nE5vWGgLYrjpiTBt0LI3LfRJxAGI01r/8K6FtsLQNSUdudbbbqFtMHSdCIbzLvraQnURhowMIyZ/a6HtMHQjA7FauzjPQjuAXHsxxTf2b2ahndTlm7dgx7WtLPQpkDMvM3JV8skW+gzIqUwsVLr4VAt9Tl3OvERrua91sdAXQE5lorWxl/Sw0C6gSLQ25I4+FvoSyDEkqul9d38L7QZy7UUsFP/iFRb6CgmdDWF4pPtgC31NKceQ+KSuz40W2gPk3IZorWLHnyxUD+QP1wUlH42yUMPxRimY/udxFtpLKdcoSDg6NNFC+yISotfVvSdb6BtXCr0IDJLGT7XQt5Ty+3JB2465FtoPFGnKw70KLXQAyDUl0drWNjMtdDAiPNYILfubhb5zYmANorX5e+Za6BAMXbTWhUCuodRC30dKtSSQm/2KhQ4DucGhE4HczSd0oh+AnG8QkvXcXmWhI9TlVCYka/3oWgv9CBQJyQ51WG+hRhj642FB7aIaC/2LUo4hhlo5dKuFfgJyhqLUvJQdFjoK5Ep1Der855RI+jEqqkm/So7BtnyKhX6J2JZorXbyUgv9SilnijOYDYfeZqGpQZmim1x3Rm3jVxZ6BMi5bjyz4TX9LZQT9Lsk0VrJnHEWmgbklCLuCi3Ot9B0IKcUpWr7rbDQDCBXihjv4FWbLZQb9PUixmv++0MWykNC1/rMa/GbulgoH4auLua1kjkXW6iAUq71mdeSlt9qoUIgvx3zQg1TLFQUYci8NmjZkxYqBvL7Ql5t4wsWehTI6cWm/4ipb1hoJnW5cZIY7+Dv6yz0GJBrLyLDB287ZqHHgSLzWu4VHSz0NyDXXsxrQ37f00KzEMOXMD/+rxdZaDaQk5DIsC4txUJPRCzP1FCSc4WFnoxAbJaPXne1hZ6CoesmSJjU52YL/T0iYVdmw/QxFnoayDk2c02o+gELPQPkhjXEyBn1qIXmRMQgbBi0+AkLzaWUMy9TXuv2L1poHhL6gyGz4XILPUspNxhiw3lZb1toPqUiNhzx9HoLPQfkbIiE3W+tsVBJRELChoPPbbPQ864uvJfjmBUt9luoFIZuxCMAeDDvBAcoA3Jdj/G/NDXWQgscQwwFlJvXykIvRCDWp2OrT7XQQgfhUQyGQ+aeZaEXqcv5PINh72vPs9AiINfKDIbx25MttBiGficqODK2n4VeopRjyIRS1yHNQi8D+eYtqOg50EKvAPnmLShpnWGhV4+bt2D60sEWWoIYvnkLRn99k4X+AUNnXiaUq+uHWmhppBQTStKskRZaBuR6JRNK29/dbaHlQG5IwYaHt91rodeoy6mMDbcWPWih14EiNgydlmOhN2AYseH8FwsttIJSjiGGyvnj4xb6J5AzFKVG9j+hO6wEcqW6uQllUiS93FXUVbZljd/eQhUR23IEXNtYYKFKSjl3asGEMuePFqoCcv0uRhPKNxZaHZGB8T+3xVkWehPISc74X9JBQ00UeisiBuN/qMftFnqbulxjMdfUTn7VQmtg6OrSGr/pdgutpZRrLMb/3LmnWOgdIN/sTCh9LbQuwpDxv2TOEAu9C+S7bl7Srlst9B6Q04vxPzTuLgu9T13OUIz/gy7/m4XWAzlPY/yvHfS6hTYAud7KOfaIP++z0AdAbnRl7Grc0NRCHyKGL2F+1YE2FvoIyEnISJ77WoKFPgZy/snKa8hV3Sy0kbqchGcyoZx/oYWqgTxFFGcxoTx1pYVqHISEDPIlQ2+20CYg51FAo/ePsVBtBGIITcp5wEKbHYQDoPLhzY9aaAvCR1QO/etJC30C5FRGr5zKZy20FYZOr05MKJf/w0LbgJzbMK+1vvZtC9UBRSxfe3uthbZTV0SMedN3WGgHkBPjbCaUQbsttBOGiZkLXV3ds45Z6FMgVxeDYeOaphb6LNJTGKB2jGphoc8p5YQ/h+XVvnYW+gKoOAnzsmoovaCzhXYhoZsoGa5zN5xpoS+BfL0Kxu4810K7gZxe1DVk9fkW+ipSFwul3k36WuhroIhe8W3SLLTH6HVk6eUWqqdURK+6i6+xUAOQqwu9Kh78nYX2ImFEr5JTh1poH1BEr+ndh1noGyCnVxwTSvMRFvqWupwfMmtc/fqdFtoP5DwKMZLuzbLQARg6MbBG28b7LXSQUs4a5zKhBKZZ6DugmnQCAE0o38+00CEYug7bnQnlkdkW+p5SC4rYGyQ2mH90roUOA7n+heVz0hW+RqEfIpZnmT9yzyILHaGUG76w4aBOyy30I2JEbNgzeYWFGoGcDamr9ckhC/0rUhfmPbS80kI/UZczL1N5bf27FjoKQzeVs2+wcuHHFvoZKBIpzeu62ULHHENUBpoy/lML/RKBiJRGvL7HQr86iLGXWT5jyg8Wmhrjzw40SvfeRy30CJBrlJOChXG3eRbKiYlON4WNL8RaaBqlHMPmwcK9U5paaDqQb97CHXnNLDQDyJn35GDhB5NbWCgXyDlby2BhVXprC+UhhnPRJsHCpQvjLZQf4zfK6cHC0vvaWaggAnULFj4x6FQLFcLQBRWtgoW5z3WwUBGQc+wWwcJ7z9KSLQoVAzmP6hQsHLv6TAs9CuS6OXoNzeluoZkRvc4JFg4Zc76FHqOUGwEwVFrz3hZ6nFLOUFi+99ELLPQ3IGf5Hi5SKoukz4ZbTfq1shJL74EWeiJiik5ESpNXWOhJSjnJWV+XzJlkoaeAnClYX4/vGLTQ35HBuS6BTe6dkjwKPQ3kxCOIKvkp00LPADmlCKJCzR6y0JyIhARRtYlzLDQXMVznoq6DY/ZYaB4MXV0sonP/2txCz1LK6UUQFT/7BAnnA/lenVey/kYLPRdhSBCVNGuchUqAfK/OC23TYBiFngdyehFEDRpeYKFS6nI+QxBV22+JhcqAnFcTRI24rNpCC4BcR2Z6bbxQ/S4KvQDkGoWpvOqqUy20EDF8CfNz7+xsoReBnIQEUUOSz7HQIiDX/Qk24tecYKjF1OUkJIiqW6h5LQq9BOT5QVRJ/E0WetlBSKhIacsdFnoFyI1dQEnj77XQqxGIIOrwsXwLLXEQDoDKoRvmWegfCB9ROSd7gYWWAjmV0WvQJa9YaBkMnV4EUa0rKy20HMi5DZavfW+jhV4Dilh+3o5dFnqduiJijPD2WegNICcGQVT3tYcstAKGfhBV0PhjEwv9E8jVxTS0I9DGQisjPYVgo6os3kKrKOWEP4dIqUdHC4WA3FDDLJ874WwLlSOhG6CYKMc2O99CFUC+XgVDTk+2UCWQ04u6eh/rY6GqSF3oFX9FioVWA0X0OjIk3UJvGr3q9g+y0FuUiuhVkXWjhd4GcnWhV0noTxZag4QRvab/briF1gJF9Bo9epSF3gFyesURKQ0aZ6F11OX8kCAq6dBEC70L5DwKMdq+/lcLvQdDJwbWONz3EQu9TylnDYKorQMKLbQeKBJEhS54ykIbYOg6LEHU/NUnDJUfUCoSROVcUmahD4Fc/8LyI6ed0B0+ilieIGrQ2Ust9DGl3PCFDXv+aZWFNiJGxIat7z6hE1UDORtS16Hr3rJQTaQuzFt7cK2FNlGXMy9B1MpzPrZQLQwjQdS83VsstBnIzUSoPGXYDgttcQxRGWjEoq8s9EkEIojKOLTfQlsdxNhLENW94mcLbaMuNzu0I1L6TcBCdUCuUQiiGo/FWGg7DP3ppnDvlSdZaAelHEOCqB2dWlhoJ5Bv3sIPzmlloU+BnHkJNqoS2ljoMyDnbARRS3efbKHPEcO5KEFUafqpFvoi0igEUU+cmmihXRGIICp3z2kW+hKGkSDq3rQTppvdQM6xCaLGrulmoa+AnEcRRA0ddq6FvgZy3Ry9hpzR00J7InoRRKXFJVuonlJuBMBQvRdfaKEGSjlDYfmuc/paaC+Qs/x5LojaFEn/Bm69Q3DjkGJ8Sg8LfQvkDKgrJRVdLbQfyEl+OkFUh1UWOhAxIPFVbb/vLXSQUs5KBDa5+y630HcR8RREPTDBQoeAnFIKogpmWuj7SF0Kop5+2UKHqct1Luo6uKfRQj/A0NWlIKr/KRY6Qimnl4Komy6x0I9AvlfnlRT+yUKNEYYKom7UOBmF/gXke3Ve6JkcC/0E5PRSEHXGLAsdpS7nMwqiGldY6Gcg1ygKorw6Cx0Dch2ZqbxxtvpdFPoFyFmeqbzqxQ4W+hUxfAnzczd0s9DUWF9CBVGPnWehR4Bc9yfYiD9TnhaFcmJ9CRVExWVYaBqQFwmiJv7eQtMdhIRESqMvHmuhGUBu7AJKWv+AhXIjkIKozEctlOcgHACVQ8tKLJSP8BGVczYvslABkFMZvQY9o6khChXC0OmlIKrT2xYqAnJug+Vru2+2UDFQxPLzUvZY6FHqiogx4vYDFpoJ5MRQEHXWjxZ6DIbRIOrckyz0OJCri2loxwUaDKPQ32L9nkKwUbVJy8YoNItSTvhzCKL+qGEtCs0GckMNs3zuc+da6AkkdAMUE+XYS3pZ6EkgX6+CIddcYKGngJxe1NW7V18L/T1SF3rFT0qz0NNAEb2OPHiVhZ4xetV1vsZCcygV0atiwe8sNBfI1YVeJXszLTQPCSN6TZ9+h4WeBYroNfqpMRaaD+T0iiOImnynhZ6jLueHCqK6ZVuoBMh5FGK03f2QhZ6HoRMDaxweNc1CpZRy1lAQNaHYQmVA0SBq+NMWWgBD12EVRB2YZ6EXKBUNosa9YKGFQK5/YfmRry2x0IsRyyuIunm5hRZRyg1f2LBnUbmFFiNGxIatn11toZeAnA2p69CUNRZ6OVIX5q3t+q6FXqEuZ14FUbdUW+hVGEaDqHbbLLQEKBpEzfzUQv9wDFEZaMTWPRZaGoEURHX7zkLLHMTYqyDqm18stJy63OygIOq3QQu9BuQaRUFU+yYWeh2G/nRTuPfWZhZ6g1KOoYKovi0ttALIN2/hB2mtLfRPIGdego2q5LYWWgnknE1B1M/xFlqFGM5FFURlJlgoFGkUBVFJp1moPAIpiPq1g4UqYBgNom7pYqFKIOfYCqK2n2mhKiDnUQqi7u1uodVArpuj15ATB6I3I3opiOrc20JvUcqNABiq91sXWehtSjlDYfmuyy+20BogZ/nzg+4VbyR9HdyGZf1FViKIGm2hdyOmiNdOVJ2F3oObc0IipZK6Ky30PgydKdoSRE3ebKH1DuomfXNzi3pbaAMMnb5ESiVDMy30QUQMPV4Z94CFPoSh8+oWBFEr11roIyBn9phgXuOFTS30MXU5UxDY5B7tZKGNQM6AuhI5rZeFqiNi6Epk8xQL1VCX68jUlbR8hIU2wdDVRcAWuv9+C9VSyrU+Adugvz1noc1Afg/Kq33vLQttiTAkYBvx+FYLfQLk96C8g5/UW2grkNOLgO3B2xottI26nKEIG3LntrZQHZDrQboS2aWrhbYDuUGDsCH+tf4W2gHkHIDYoG7dtRbaGRGjGUFU4c0W+hRIep3UrFkgMFj/hITn/xMSXvDhrOq+Me1qp+16tzGm5+h+G686dcrRfSUxbeIGx7KmaOo1D1w3IWtC15uG3zOp60333z1iwl2T+ng3jhqTfdfwiZ7XsmXAC3rU4zX1TvK8/8t+tAq0fjjgeW0+i/Xof/31Cpoetc69bM695mE6w3y8vjxv/K2xenBO1H+5HpHruXheUk6hnoDrsbeedesBt55q61G2/g2E/4bhy9PZ5/1MD531pFmPl+kBOXqQnFdydUVeUs16PSfWw2E9EdZjYD371QPf/NzyQXq0mx9/xWg9xNWTWz2u1TNaNgFX62msHsHquasetuoJqx6r6lmqHqDqqakeler5qB6K6kmoHn/qmacedOrpph5p6jmmHl7qiaUeU+rZZMHVxUV6CqlHj3reqIeMerKox4l6hqgHh3paqEeEei6oh4F6AqjHfnrWpwd8+lcfPF36nl7bmMTCr7vua+fmtuimG9gszkLu+ZseuulJmx6v6ZmaHqTp6ZkemdUm/qiHY/mNLRL1GEzPvvTAS0+59GgLh75fD7H05EqPq/SMSg+m9DRKj6D03EkPm/SESY+V9CxJD5D01EhvivR4SK+E9BxI7370wEcvefRkR29z9AhHr230rAaDTNVDGb2I0dMXvXHRYxa9WtHzFL1D0YMTvSzRExJ2dj4pqPV26vWHnnnoPYcebujfusBLKq6YMf7nXjNKhuIlKRhlQ7LeRugRRG5tv1XuWYPeL9DP3YsEPT3QGwM9JtCrgRHX78coLfKrfhuvm/26wo+XXMYKapD+sYz/idUXV+DXAXdlXXfTdQldt811rVz3x3VRXDfCR2xs1B1vKmiJG3bW9Wzdw9aFa92s1hVq3ZXWpWjdftY1Z91n1sXl/Fpvu64i686xLhfrFrGuC+tesC4A66Yvi4AeururS7q6jatrt7pfq4u0ujGrq7G6A6vLrrrVquuruqeqC6m6eaorprpLqkujxJNv6Bqo7nvqYqducOqqpu5k6h8GwdopKcymS7H2bTNqG7+ik/fXtUeMkY+1V+jGoq4m5sVv6pJXMudiJpRbdX1Q9wRZUL+gm3+64scwfsxd2tPtPF3D0307XazTDTpdldOdOF1+0y03XWfTvTVdUNNNNF05090yXSLTbbEH847p/pcueulGl65u6Y6WLmPp1pWuV+kelS5M6WaUrkDprpMuNen2kq4p6T6SLh7phpGuEunOUMHIq+Z4aFzRnuYv4Mjqj2j8Dc1/lu7l6AKObtroSo3uzqBxXzQeomsvut+iiyy6seKupugOii6b6FaJro/onoguhOjmh6546C6HLm3odoauYei+hS5W6AaFrkroTkT3rGO65aDrDLq3oAsKuomgKwe6W6BLBLotoGsBOv/XQb9O9HV0X8AZvQ7jdequ43Wdo+vAXCfjOgLXWbcOtXV6rWNqnUfr4FknzDpK1pmxDod1CqzjXp3r6gBXJ7U6ktXZqw5ZdZqqY1Odj+ogVCeeOtrUGaYOK3UqqeNHnTPq34HBuCkDcacVGHeSDv50wscQn6kzOx3O6RSOzttc52o6QGNEG6cjMZ196ZDLnWbp2ErnUzqI0omTjpZ0hqTDIp0K6fhH5zw60NHJjY5odBajQxedrugYhfMSHYzoBERHHTrT0OGFTil0HKFzBx0w6CRBRwY6G9AhgHb7ta2v/Xtt1GtHXlvv2mPXZrp2zbU9rn1wbXhrZ1tb2Ixob2lTWrvP2mbWfrI2jrVDrK1g7flqc1e7uNqu1b6sNmC106otVe2dapNUu6Ha9tT+pjYytWOprUntQerf0ZGBe2gLkcFrlTYFtfunbT6mjJnauNMOHYMX3nvTJdpc0y6atsu0L0Z/XeF2urSlpb0rbVJpN0rbTnXsL2kjSTtG2hrSHpA2e7Sro+0b7dNoQ0Y7L9piYS9FmybaHdE2iPY7tLHB4MWUcc0F2pPQ5oN2GbSdoH0DbRBoJ0BLfq3ttYjXal3Lcq2/tdDWilpLZ62RGbzw3qJyLW+1jtWCVStTLUG11tSiUqtHLRO1HtTCTys8LeW0ZtPiTKswLbe0rtICSislLYm09tEiR6sZLVu0PtG/Q6TxIWU0LlxHlHKlVgxaGhD24MLjHlBUr/CdKKUTk3IvJuUURsQRiqUVNCs6VhiseJcRsVERrEJVxaQKPpmUb/YeDkwNBB4JeDkBb1rAmx7wZgS83ICXF/DyA15BwHshMHXuM6cF1wcu8DYEYj4MeB8FvM/IGPT+HgzEBQjTHiZCbea1iPxLU+F/iK8gMPVa92/x5Sdm3tUq/A/yddDvTsHOXhfvnABx3l93ffFF5E9QjP4XG2gS8M71/h7wOnqtA6c9QtLp9y+bOPZs9hCTgjOCnhfX88OgF2goLUsF84IiipMuHQDxapqImPL6rY4YlvVDWnKoz4CYjIRmA2rSzx9QnNR2QEZC5wExNekJAzzvZBITBjSU/prmEoZl7UzLSGg7IDNrTVoMKoEsTqtJ/4G/uWkxyaGtaaH64rTMrFfdN5hdffJxoia9Mi2YmLnIETENpWsckRyqheM74vZ1Wnn9B2metz8tu3q7Eo6A7iXhSJoTQERiZvMB2dXfUiR+QEx29VdkPW1AWVEt1XQaECOxMhK6IdWL7hssThp4nMASYVPwJYhODn1O0iLJ1BlNwZJDP5MCUVZUCgEUyeO9GuMFipPmUP9FFdQ7yhHYi/rfSYkZlvVFann9xNTkUAnfn1IR9TIMnkbZy1ITMwsl+2Wp2dVvoFAJCVvS/CJHsMH52CtWyoyCaEUDzHFflHnLEcmhT/mSw/N+xkJHUChugONRnNQaY7xBQ7YmgVpEqFrl8OVQEQn2aVhSMZXoqkVfL5CYOQcxS1IR4DVHlBWtJe/mVBp8M0QTRNyZVlbURzJ/xY/b0vQtK6I+ETXpL/C3kyYql49sRpoaUPH4LM0xHZb1LXXNcV98ZKojGkpvC+eQvCqSXd2LRHhkV3eC4QskdIIPtYhQtcrh5FARCRbmgaRiKtFVi77e8665ZrmWpu1npTaUthgQzMy6gDI+kV3doKbv5wjqGIyRPRz8L7hS3ICYsiL5sZpjkftS6VpHZCR8Es5RnLQXtTw6yPeOB/UccQR9ySObh1O1oPXIGqpvT5dpRcLZ7ku79HOE512J9wbU/a6H0T5aTt/ytKAIhPeC5fUXHSeKk1ak0XcvolANVutFXkyYmXU2Wb7BuTq4Lwli/Q3c4ugL29VQxxB+A5Y/hoGWpwXDBFxr0t89TjSUrlIbvoteGym8iio+VX0vkeUbfjzhvph7uiNq0ieg8JdifzPEdqpI5+9DmbMv5VeT2Jdir2gA6EsRqlFj8PW8rQEvMCyrGnebIwbV9IZP0aAl+VsOoIreOG533DubhMsH0BNfcQTiPQfRD71mU8X5smU+rDtjkinI3Vq2vBtNjiHeHeTcIe5/hFkI7f+IA7nqRAzjbzwiNtFo9FfKXoQDFVPsxwpabA7I5kpVG6rvUIUC2Y5wktWkjwFpSZGRqTCrRqOecA8rw/L8LXSLKOo0dl4nG0QJkDDEl8GIP2Q9Q+q9y8hxBtrMxyJnO21Sk0Pn4VB3I94F4YSMhH4uR3Z1SrhIQ+nltLgH/8sHxCRmdnREYmZvlCBHcuhKbNUPZ7wSmeEhQkyVw9WiIqpWPNxX/9hfRsKjmCipgs5wiyMys86AT6UGvG1IOR45nkWGH1LxkYHI0B9mA0ksktMMRNyV1P8sVtmqhDr0aIRPNwzJcNZQ+nucpRX94FH3xWtfdERN+j+ppZlTjPKxCLURoX4Rj62IfYjEnRhwr3rJF8cJzWf4SQt6iU+gjUcf30Uen8iufjUV++90hONXnFSI5B/Dt18qiq4jIZRSVrSCHO/0J2EhEidVREwhozyDccuUd6kjkkNvIu7mVBqmmoQYHGEbFfbWoL8Lc9/Kj10AGEVEcmgRP7bBrUp9rZocmgHfIuFzabiUHOq5z7gvtUx1RGLm7fAhR0PpAPxvE5ZO4stMWlbUGeJFyneGMbWI0HhZk55MIuMlkw/aNIHP7SR+kop3TyVrGS0V1sW1tpxxWNYNVc4rnZ/WpF8I7BPOzImZKY6gg6fD7hDw7zHYL+pS46gjFq+cjvA0XmLmE641EzOXuC/j5UZHaE73HSDIj0bKN6cYLkKUQHb5zMm4O5qIkFfVpGvW/0EDfZDWld9pqMQRk0Mb0TGporx+ifviRE86oiZ9BnxcC46nhlBKYuYfkJg2Lk7KIKEQ70whh3OHvseJqAVEKISSCRBFhNpSPcc1bnb1zSAxsLoXUTZruiwiQf5Q6r74Q7kjNPA6s2uIVDsUJ+1GRhpGDauW0tfVIkJtmZi5my+Nq/FLrd1QuoFqaX5NDsqlWvSlliJHDMvKhik5MhJupnwtf1eSUBUWPex1F/JXlOYtZHjKSOhFa6SqSXsi//NpNPKAMFFe/xH5aHbPOwnzQ2Qk/A0Oj6cRGOWHiUjxsNvQu8KDmet5MmOUAAlDfBnnyutrw0nZ1cPhNF31PwXxUhopfoeN5HFTRLjjMWaL0DAre7txtzjpRkwzpjIjoRX+5Ibos1NFYMV8RqVvKxlIUjMSZlRi+K8YTEdUJGbGwuOyVBLao+tO3LwLalygGbMHXLP40SNcnYiG0ndITKTIIRm+KXW3wUFrUbOb/HkORF8c82y+TFESRATIjXTP7njqvSQwm0l2TW/6irv3JJppUKVZUyl3AxaYnEpDXUN9TzD6KL75SoHmBSBPV3reWTDaW4kznwrSqSq7ulUa1q0iknkEVftW0aULU2vSu1Q1lM7Fdb+rpP+9gvIvVCZmVvBtpYQPUlE+RQqgaiqh8HYMgAARSbxcFg1wg/ULaZjzv7SeI5w/yGRRQiEPrdjPEU4H8tKxsxCd2Ccj4TGs2ooe7o8DGQkbHCFnzcxqqgn8CFYJDAjVe7jbPnWtOGxXC0OFL8skSlzYNehG4h4mMhJeVrN8Apf3+XsXJnUS4J8U3Ee2ee5LfQWOkEQNpUQrGrOGZW0newYJG1SfNK0gV1h1b2UT9fw7+ZGuye9iR6AwPOr74xpv0eB1KTXpj/HNUbv1pxE+xDb6dlIN/bH5tbRZDol3akheSMIMWnc3ppwpoU7GaZ/CgX+D6HM1fmYiQwlC5ZCrVDzmgiq2fhlNX9TUEIJYTK63KfKqeLyPYMtIfB89XMz4Pm5WEUa0sFJqdvUXaTEahMvr91P2Cfclx18cwShHzl0aaPpAbEHkc8j1Xhqdfyqyb1LZBcj+LchexraflZCIVGqiDLgz1HueOo4m7tnuS8ICRySHVvBtoaH+fTRrRiPWoR1jf1mRgudfkP0H/vZJ3V+pdysi/0qRVWl4pxJo6rKi9ccJekMqzvaeI9BC671MAoyVFGyh9c4SkLEpmVnPklB0Kd2iGBnVeOHWVLs+AvWkxo+nHRGO8FelotdKuO1EyTfRr4V8632E7M4P+ddgDZGya75MsI6yM5CrCnSaXOgN2nMqP17GUFPSGINKMPADZH+KXJOVUIy1s/mRi2iTxOMuiAlkv5G/0UroR3ZNMd0perXGoNOo9xL+TkOOjuEEz6uno/8Gc1bJADcjx5M0VFgpby8Teah+HtlZpzI6OqKh9HyKvanZ8nNsdQ8uyBrJa5S9LkNdzelanha4UIGE10koYRjZLLE/x0JHkPA8lKPlGHsRSOugZ9yXHEsdUV6/DqFwB2yIYk1o/f0k/CTf8hglGyjfhGIfS1PN+K8jnL4zNXyIuFdzTx0S+oTciJXKZ0izQD3kM+pZhXm2kLBesn7EjzpEq4LTbvWyJSD7yfWM+5KQ4wjGfnLi5RkJlyPaJ4iVxPcdSdIRw71G+Y6033xJokCYBgwTGZTvDdJZ1V2JBgew9RiKvKNuPwN/eZb5/Vn3pYe+4ggto5BFHrWOet8k4WNq2K0cW2EYS/mdMO8sL3dTrERtwtSiofooOf6scGIf/lLNKLMJHm7YKYfJRRWR5vWStWz4htz0DRHJoZWVMCwKRQmQMMTX8/6Fb2QkJNNNj2pnI94RmORkWkoDbUv+aM/ipJNoi3YkBpDoNPVVNb8WWF9jtK5q8S3oeSYtvtZ9SVjgCIVA7EVpABiJ0eIpkoHNYhTb94DYQ9P0gFdIrtwDgYuxUwbNM1TmHYlaHclRBIBvltcvgFiJO651X6y5xRHFSZJjg3rwEZh+hsMEqCkoHiexnGgPj5aIT5CmDazEzCEUi2fs+bOGyGS0nKAO25Ms/Sh/DmWbK6ELZVfRVu1x0rtTUbsF2wHVKRkJx1DKS8FSX6JUtwqOrd0X7k84QnFhWVFrhadtkUx7bevhc65GkDF0o4eoZQyJoXACkSwqr6cXt1VnORnpzkaWWzEMSzOtsumSiC21WbyFFw0piH0UxfrJ2s2xtHYFJGlPrZO68OMs/s4BSFSOnmRvCRpubW8BTU+8goHdsHCHIzTOYEcpthPpHsCO8xHq18iwcBlqX0aoUCg7XkYAZYYFYlGKyC/+y7DQUOoPC9jSEYmZ2g5impdDy6c0JCRm0js5tEe6beSKQ9JKTTlbcaNKTQby+Y1UtxZLfare8TrItzCa47601jRHDMsaxZcZrqH0CgTZTDEtz1crRyc4L6ardULLonBCcdJQ6taquJcm1IHkCFBkJEBNKiJPI+F57KAtuOdlh5ccoeWg5+GCNelr4P4xTbiBImywaeuxrCgedCt8eqcREcXRls71NNj9gEGxP2Yj6zfU256ymxD7hhSYhTt0pGG8PMKv8vqFiEtoFSb2Kfj5KsUQUYhome68kxGjl1Zof8IOPoEvyNP+BNdYpBrJX716yz0o8z75H0KOSiXkYt3lJDzmvtjwSUdIf1SWQbTXEqKlS+FVkUoLvULNRf3h/iLIpZfiMvqWY90nEWBnuaZHqitH3dEI4lVkZl2ubwoe0hHizZTMrCbUP0qT106M8Qb172QMbaXOGdbG+5LwWMEm5UzUqRAlSpTX75XD9HME4lxFrZpl7kYcnE1emxxqRUxZ6r40xyJHhBeKLmEFOrWi04QQvJVWOyHKfq0pbwUpe0CXkFCvplxIizVQ+bPu67iL0ExVk473JYf+ALGNv6sQaL2crS/VVaBoX3K9pMbri/a+Onw97yY13zJqYKUkgiSP2e4vlugs6O4wQQjD8sYLE9nVp2uLI+t4cRHeEQwnp3dmChM4Dk2I40SJKCQP0iKA+rQxvt1xxQu209e748WxiM6I1FB6Oopdyuh4OQlp6slj0HIg1i5wXzxpjiMUPJcVsQLKzFpGkcvoAP9EsAEDmFZfguihyWQhhunBKFCCN56nhDlkPZ92mOW+GPdBR9Sk30kTnKMcQ8l6BkWGwiNxAIHgUEziy8zX82Ywvikch9Ta4DEMVar1/PNwelkNuAK5tE2zhu9GNeBGpPgcobeQ44CCi5201TFadSe5cCARiZltsUItCQnylw8Y7DvhQBXwOEMb9q9S9mxcTAqwhxaqz3WEJhrtoWGWGynbiUB5INZur4Q+INqj1zdWK+RH6VwMn2GiPaPlB8hOWfWShtIkmKXw7SsrTETkFBLmuS/dZ7Ujsqu38SVHcugwOiQhUIDEbuLRjB+n0nD6opQIBRgKNjQbUyTAHLcJTQ8iabk60k60LEWPchKnasU/gvrdInEE1byZiu+0xCo+gb3DBufrKSKRrnJFfG1gpJHYYOI/R0QhEd5PNJtmw4yETappLVXSd1hfoYdmgBAJOxQ/vk5L7eZvEQl7Ndg/S44D5Ch2X8RWeH8AdAhN+JV49EKH7fhNL7hvCCdoblHdmk0Y/W9Bvlf4kcPfQkWcSyg/T76wmXKz+VGPLaaK+1GquhWGRwHOCCeUFX3KHKnQ6nGFJp+SPZaRcy1AUgrcXyLhogotPvUlx0WOKE46RDf7SqP/fVijkJHvcuaINpo5TqOGLuJ+Jlm/IdvliPu2uN9O/U9TXb77okyZIzKzXkOpd5SwhqyHSFiDhKdJ3TU0m/Z7VpGQri6wFO6/R1xFj7crrv4jZbNVXQuyTCPrBlzvKZV9hFlfM98jSPheOKG8/nOqXMns/72YHaRJY3CD7lR7knrLH8mu05LwqQlFVjlCzsUumXJ8SwvppCTc3G7LUTM3U2EVA9gXIG4LbqcjMOBWWBcy8n9Mvf00fa4j4X+yNUvCLY5QE9HU//fsUmvjOUpo2GXkbkGk5BNRC4iQUcKbsuiz1BF0NmrarAmzmoT/JzeYtbOkfqXFE64nAu05qA6bQQRDhNb4W5DCJxgIUhk1NjmCSrQPcD3meJ2EZSkI+hw11pcXJ0kDF3Jc7YiMhDNovJwUihykS5xBkTdp3iUKebRHGUc7zaLTXaMZ0Q8uND9HCe0VMyT3RZkuWPtmbEGsp95Cq+NKs92XhDJHFCctR30aCDkpe5g6N2BgumFD6WZk7gePzXAfk+bNZmfJ8w5TDM/JSPgOSU5F8x0kcH6tJXRm1lnMMQvdFwUed4TOtrKrWXqx2+GySlXPY1rSpkF2dVsmjn7oTFcUUZOunfUrJXYaveAGEr4j1yisw+hZVvQAUu5GwgJ40OKh+idAt/P3HInbZJW1iPuxGlbz4wbK1YOuEbOjlK0goQmdfalmEIVQC8iuFdYsqax7A2r+BGaha8MJrI7Qow2KhTScNaU7XYAdD1D/VK0/quGeTsd9wX3x2vscwSSBDiNSaLefGJu64U9vMBIRqnre7bRocwx7A3yuTaP/nE0Rqktkw4YDUcQegHM2l7q3UM3nZH+AHG6wfAwd3O6o+2L2CkdkZn1Me6yXm6gb1VOVtuPbSIcfYXYeSv2IQNeFE8Lz/H6AHPUrGVTbvLUAT2hd/Q4NMofEZeQqkYQzIF6RyXpT3UpqaGQU3aiEx3HCPSQ8jlcyT4tIzJTZtvA9U4FDa4okY9DBcL9YOXLInkIbLHJfDKLNkBQsvJcqycE2A1ZOxjFaUgweyaF2DFqJBADt+TZTpwv7oaZtOTvWDrs//e94nOqIKCTCO8DQ7Xo1/9E//Vm9Jl2Kmrsl5fWHMNiFGjK1WdiLGERLUgKTxMxTIBKQ7RQnikvQpJqR0IbvPnW+5oyL2ykfg/TVMue/sMB7yFbP31rF/vUkvKn2/YkGX01ZXYt4XU7bBs218pPCT6qxOlDdIzDrQI5B4QS1a6j+FMafNVrXaWVwIwPFL7hUteZvDdmep91kPmE1+XKEoQhCAwqGWe4IJKhzhHZa3PpZp+vaM9LXOaUIbbmWFcnkeZJgH3yfInE7RefLB9ajhRZVGt1eVB/U6tQnHHdXs0Zm5pFXHIHcqx2RmPkRvOvEdyc1fsGPr3HF/Uo4AM+f0f0AleFbItRZh7nttA6avz6GRzfM/Kr7ugoNwVz9IqOWFvaMPlVI+mdHaIOA3f4qmuZkqri0irCGLtSpivZejCW9KiYLOlllJa5xJtreXknWXhCPV3L8kNZQ+loljn0dCVsrdUo3TMcWDaXTEKtJlZYU+lJEkUSTqpr0D9Hqo0ps+QXGnVWpL+1RwXTyBcwIUT3vU0dQRhPkIkYGBQ+TtTGzDiaaCFZglre1E7owjRkrRV1WX5zmD45glEG7ThqldiD8o6mscOmUMerhihUuo/xA+BSHE2rSV1HsWXJuU0IdQ8a/EzxkZvnBg44tFDxoQeKCB83tCh4UUUZjhijhz1B+8CBCwyS9RRdNFmHWGMaMYBVmPQKX3lWKA8rrM6po5EoqzCQh3IrhMIMxSt671BH4GGUOynrVqNCa9tiW1lD6G3WoXeQYjhi7kP7RcIJufom9liGwV5H/7TBD0aHCDLYjlKMzJlhE+c7hWkRoVzAcZlyqai+DofbLbqfq78NhhkRXLfp692n3uzMg1qHxKPaSdu03hFMSM2PChmso/QcpRdoFjWGyontrdcfXc6WSQ9cL6hhO0Z4NXy1zbgqXQjDGa/hE6nLBbGSEgLs/IrJYRiOfcG2YkZDuCHS7jmrUzLeThXYvTpqIGWIZI/NRBc8gvscMOkNZ7r4UqXVERsKBsHcpO3MIPFrS6ltln3Y40kpqaEeuonCC4l2t1FwArHKKiIdlaTQgRCauxEg6Ln/NfWH6jCMaSguQhzC7Jn0SEoboKcORuJ9my+tIKMTo6eQgZtcSNUpggLAF+DJY6pBdNqM7pSDorYhyLXl6ywLDQGJo/ymIsjkVh3iMBMWML7ovfWO1I9SLXVRZnPQ5FTVBvnr++qQh/Xcgt1H+O3JSiwiFqkzefJ1TfQ7BEMY867vdalA5pnLhmIoGRGjTX7mxQCaSypevJaEqLDq9i8SwLt5zBLMSDAXDurpGjt6t1FggoqH0B+ruo4RmtMt5WL4tiR015CpG0lSnGOmo+o/uVm6jzrYA1Km7lckc8etuZXJoVhrusJVWz8F+r7ovznzWcaKsaLmIRY5AA21zLMe0ikUqxO1rJH+HH/uRbIsSND58TcIRLIoAIjKzTqLy/eRkX1pFsqsTEUJeR2zKPIl4/97dyt1sQ+mImuisCn/Zi7/dUMW4m0rrV+GEc2jTwVVMhCSkV1GunNFnayVm+BGivpKjAxT4upIWPw+z766UZyGAEq5D61IS5EoXVDL4j0OT+nL6a32K+iLr6JPJ64jH0PYnnRfOChNqGQclh3R1FSIxswQlnqykkZ+mpm9gXMy3XRWyPJxWXt+nitGSwgOlx6VOoYhi3uX/nReQlew+wXoglUFCgZhPkDecma/bAoxKUpy0JGxFzxsbJqIaZVf7GqmLMLFqBJoVJv5/Gnmj/juptPsTJTwv2mg+oduEDG+/Hid0BO2gKAG/MEO+njc3EA5HILVW2x8WVGGqI8L36dpJ0KlhQjOeDx0IExkJpyDTqYLahYmGUh3OACWHrokQ3RCXKjxPckNoj1+nyRSvDhNqORAFqmF53GJTwaq2IzHe/zCgZT8m3FYidEAJ9/6OoLGvA9LlTq1E4jTYhq8xJGYudV869YeOKCvahdkIrIqTGhEogJhBOvU+9SkdpKkL6oxvmUJWdTBwzZt8w4S7xiAiu/p996czTQqH+LGPv2f526eRrNAR2nN21xi0SFWIzPxOwgZ1e2laQa6w6v6l5YsxbkgTzMVMCg+lhbdWz1X5rohVRkwjJVprYD9M3+rGudBa9yXHE47Q3pfLoclXRdjiZgKEBzvB9G0x/bfPt8RUCxXVoq+rVoTk8HN0BT0bKSUpPCS6mOqrWjStdHAUeTugxB70PgUGMZo26QP88LxfSGQ7OzmkhdmZcFzrvhhygSNOOKxUER1FOh46mxRTfV0tIhTyKUd5/VC1zkgSOqJ3Ed9GBVELIFYyeq11X1etCMnhckgwFVFNjodEF1N9VYt3lD6l/Trnkg2l3x0ndLyAi3yH3CfT5l9SpiKVUHEzCb2oooJmyklBiFIInUdOdV884nJHNJS2QaFrtGVSTkDbmmH3Eb7ztY5uC3EEHm1pwEvVB09RvaruFNQ7HU86g/pjJa+WrTsoOxgjsC3JypysL9Hej7gvRWY7guMu1HxPVnkFm33NlP4aPNqKqdRLQphVJPxB1SmBNSVDIb2QogxJIpQIcTqm8QkHlRW9DesoQRdSv+AbIYBUXISiQXkroHqaPxQWJzUL8xShbBADwwVFuBEwI0FxtE9ER8Ao4UZz3UmMEtQQroKv5/2d8YdjQ5iaVEe4inWrRwTG3+GI8KiRrLigPb4hX+1CX22jhPP4oTWjviH1r/OQbCoG1Gl1L0U87Sn/GiYOULRPKp2lzlUcEUBDgGRfq3lwviNoufcckZHwFQIE1S4ebLvBtincblNCaxJmktA6XLEImpKEpnyD6lc6bjsZwb+mKd01gfWgZ5D4vPs6U0UJVed5/x8=(/figma)--&gt;&quot; style=&quot;font-size: 17px;&quot;&gt;&lt;/span&gt;&lt;span style=&quot;font-size: 17px;&quot;&gt;Room( id(pk), name )&lt;br style=&quot;font-size: 17px;&quot;&gt;Room_Connection( id(pk), id_room1(fk), id_room2(fk), direction(fk) )&lt;br style=&quot;font-size: 17px;&quot;&gt;ItemInRoom( id(pk), name, description, requestedSlots, id_room(fk) )&lt;br style=&quot;font-size: 17px;&quot;&gt;Bag ( id(pk), maxSlots )&lt;br style=&quot;font-size: 17px;&quot;&gt;ItemInBag( id(pk), name, description, requestedSlots, id_bag(fk) )&lt;br style=&quot;font-size: 17px;&quot;&gt;Player ( id(pk), name, lifePoints, id_room(fk), id_bag(fk) )&lt;br style=&quot;font-size: 17px;&quot;&gt;&lt;br style=&quot;font-size: 17px;&quot;&gt;Lion( id(pk), name, favFood, age, weight, height, dateOfJoin, id_room(fk), tailLength )&lt;br style=&quot;font-size: 17px;&quot;&gt;Tiger( id(pk), name, favFood, age, weight, height, dateOfJoin, id_room(fk), tailLength )&lt;br style=&quot;font-size: 17px;&quot;&gt;Eagle( id(pk), name, favFood, age, weight, height, dateOfJoin, id_room(fk), tailLength )&lt;br style=&quot;font-size: 17px;&quot;&gt;&lt;br style=&quot;font-size: 17px;&quot;&gt;Direction( id(pk), name )&lt;/span&gt;" style="text;html=1;strokeColor=none;fillColor=none;align=left;verticalAlign=middle;whiteSpace=wrap;rounded=0;fontSize=17;" parent="1" vertex="1">
          <mxGeometry x="170" y="910" width="730" height="30" as="geometry" />
        </mxCell>
        <mxCell id="Dyhm2oeJkvUtGDZjkm2O-1" value="N" style="text;html=1;strokeColor=none;fillColor=none;align=center;verticalAlign=middle;whiteSpace=wrap;rounded=0;" parent="1" vertex="1">
          <mxGeometry x="570" y="240" width="60" height="30" as="geometry" />
        </mxCell>
        <mxCell id="Dyhm2oeJkvUtGDZjkm2O-2" value="1" style="text;html=1;strokeColor=none;fillColor=none;align=center;verticalAlign=middle;whiteSpace=wrap;rounded=0;" parent="1" vertex="1">
          <mxGeometry x="720" y="242" width="60" height="30" as="geometry" />
        </mxCell>
        <mxCell id="Dyhm2oeJkvUtGDZjkm2O-3" value="1" style="text;html=1;strokeColor=none;fillColor=none;align=center;verticalAlign=middle;whiteSpace=wrap;rounded=0;" parent="1" vertex="1">
          <mxGeometry x="940" y="300" width="60" height="30" as="geometry" />
        </mxCell>
        <mxCell id="Dyhm2oeJkvUtGDZjkm2O-4" value="1" style="text;html=1;strokeColor=none;fillColor=none;align=center;verticalAlign=middle;whiteSpace=wrap;rounded=0;" parent="1" vertex="1">
          <mxGeometry x="940" y="390" width="60" height="30" as="geometry" />
        </mxCell>
        <mxCell id="Dyhm2oeJkvUtGDZjkm2O-5" value="1" style="text;html=1;strokeColor=none;fillColor=none;align=center;verticalAlign=middle;whiteSpace=wrap;rounded=0;" parent="1" vertex="1">
          <mxGeometry x="1100" y="201" width="60" height="30" as="geometry" />
        </mxCell>
        <mxCell id="Dyhm2oeJkvUtGDZjkm2O-6" value="1" style="text;html=1;strokeColor=none;fillColor=none;align=center;verticalAlign=middle;whiteSpace=wrap;rounded=0;" parent="1" vertex="1">
          <mxGeometry x="1260" y="200" width="60" height="30" as="geometry" />
        </mxCell>
        <mxCell id="Dyhm2oeJkvUtGDZjkm2O-7" value="1" style="text;html=1;strokeColor=none;fillColor=none;align=center;verticalAlign=middle;whiteSpace=wrap;rounded=0;" parent="1" vertex="1">
          <mxGeometry x="1520" y="290" width="60" height="30" as="geometry" />
        </mxCell>
        <mxCell id="Dyhm2oeJkvUtGDZjkm2O-8" value="N" style="text;html=1;strokeColor=none;fillColor=none;align=center;verticalAlign=middle;whiteSpace=wrap;rounded=0;" parent="1" vertex="1">
          <mxGeometry x="1520" y="380" width="60" height="30" as="geometry" />
        </mxCell>
        <mxCell id="Dyhm2oeJkvUtGDZjkm2O-9" value="1" style="text;html=1;strokeColor=none;fillColor=none;align=center;verticalAlign=middle;whiteSpace=wrap;rounded=0;" parent="1" vertex="1">
          <mxGeometry x="1140" y="489.92" width="60" height="30" as="geometry" />
        </mxCell>
        <mxCell id="Dyhm2oeJkvUtGDZjkm2O-10" value="N" style="text;html=1;strokeColor=none;fillColor=none;align=center;verticalAlign=middle;whiteSpace=wrap;rounded=0;" parent="1" vertex="1">
          <mxGeometry x="1140" y="600" width="60" height="30" as="geometry" />
        </mxCell>
        <mxCell id="Dyhm2oeJkvUtGDZjkm2O-11" value="N" style="text;html=1;strokeColor=none;fillColor=none;align=center;verticalAlign=middle;whiteSpace=wrap;rounded=0;" parent="1" vertex="1">
          <mxGeometry x="890" y="560" width="60" height="30" as="geometry" />
        </mxCell>
        <mxCell id="Dyhm2oeJkvUtGDZjkm2O-12" value="N" style="text;html=1;strokeColor=none;fillColor=none;align=center;verticalAlign=middle;whiteSpace=wrap;rounded=0;" parent="1" vertex="1">
          <mxGeometry x="830" y="530" width="60" height="30" as="geometry" />
        </mxCell>
        <mxCell id="hz1OkdymVxdqyVW1e_76-2" value="Item" style="swimlane;fontStyle=0;childLayout=stackLayout;horizontal=1;startSize=26;horizontalStack=0;resizeParent=1;resizeParentMax=0;resizeLast=0;collapsible=1;marginBottom=0;align=center;fontSize=14;" parent="1" vertex="1">
          <mxGeometry x="1400" y="636" width="160" height="120" as="geometry" />
        </mxCell>
        <mxCell id="hz1OkdymVxdqyVW1e_76-3" value="&lt;b style=&quot;font-size: 14px;&quot;&gt;&lt;u&gt;id&lt;br&gt;&lt;/u&gt;&lt;/b&gt;name&lt;br&gt;description&lt;br&gt;requestedSlots" style="text;strokeColor=none;fillColor=none;spacingLeft=4;spacingRight=4;overflow=hidden;rotatable=0;points=[[0,0.5],[1,0.5]];portConstraint=eastwest;fontSize=12;whiteSpace=wrap;html=1;" parent="hz1OkdymVxdqyVW1e_76-2" vertex="1">
          <mxGeometry y="26" width="160" height="94" as="geometry" />
        </mxCell>
        <mxCell id="hz1OkdymVxdqyVW1e_76-5" value="ItemInRoom" style="rounded=0;whiteSpace=wrap;html=1;" parent="1" vertex="1">
          <mxGeometry x="1160" y="676" width="120" height="44" as="geometry" />
        </mxCell>
        <mxCell id="hz1OkdymVxdqyVW1e_76-7" value="ItemInBag" style="rounded=0;whiteSpace=wrap;html=1;" parent="1" vertex="1">
          <mxGeometry x="1480" y="480" width="120" height="44" as="geometry" />
        </mxCell>
        <mxCell id="hz1OkdymVxdqyVW1e_76-8" value="" style="endArrow=classic;html=1;rounded=0;exitX=0;exitY=0.39;exitDx=0;exitDy=0;exitPerimeter=0;entryX=1;entryY=0.5;entryDx=0;entryDy=0;" parent="1" source="hz1OkdymVxdqyVW1e_76-3" target="hz1OkdymVxdqyVW1e_76-5" edge="1">
          <mxGeometry width="50" height="50" relative="1" as="geometry">
            <mxPoint x="1340" y="700" as="sourcePoint" />
            <mxPoint x="1290" y="700" as="targetPoint" />
          </mxGeometry>
        </mxCell>
        <mxCell id="hz1OkdymVxdqyVW1e_76-10" value="" style="endArrow=classic;html=1;rounded=0;exitX=0.75;exitY=0;exitDx=0;exitDy=0;entryX=0.328;entryY=1.015;entryDx=0;entryDy=0;entryPerimeter=0;" parent="1" source="hz1OkdymVxdqyVW1e_76-2" target="hz1OkdymVxdqyVW1e_76-7" edge="1">
          <mxGeometry width="50" height="50" relative="1" as="geometry">
            <mxPoint x="1520" y="600" as="sourcePoint" />
            <mxPoint x="1520" y="530" as="targetPoint" />
          </mxGeometry>
        </mxCell>
      </root>
    </mxGraphModel>
  </diagram>
</mxfile>
